G04 #@! TF.GenerationSoftware,KiCad,Pcbnew,(5.1.5)-3*
G04 #@! TF.CreationDate,2020-04-01T14:27:29+01:00*
G04 #@! TF.ProjectId,led_board,6c65645f-626f-4617-9264-2e6b69636164,rev?*
G04 #@! TF.SameCoordinates,Original*
G04 #@! TF.FileFunction,Soldermask,Top*
G04 #@! TF.FilePolarity,Negative*
%FSLAX46Y46*%
G04 Gerber Fmt 4.6, Leading zero omitted, Abs format (unit mm)*
G04 Created by KiCad (PCBNEW (5.1.5)-3) date 2020-04-01 14:27:29*
%MOMM*%
%LPD*%
G04 APERTURE LIST*
%ADD10C,0.100000*%
G04 APERTURE END LIST*
D10*
G36*
X-449130Y-8550870D02*
G01*
X-3550870Y-8550870D01*
X-3550870Y-5449130D01*
X-449130Y-5449130D01*
X-449130Y-8550870D01*
G37*
G36*
X2262370Y-5508728D02*
G01*
X2544611Y-5625636D01*
X2798621Y-5795360D01*
X3014640Y-6011379D01*
X3184364Y-6265389D01*
X3301272Y-6547630D01*
X3360870Y-6847251D01*
X3360870Y-7152749D01*
X3301272Y-7452370D01*
X3184364Y-7734611D01*
X3014640Y-7988621D01*
X2798621Y-8204640D01*
X2544611Y-8374364D01*
X2262370Y-8491272D01*
X1962749Y-8550870D01*
X1657251Y-8550870D01*
X1357630Y-8491272D01*
X1075389Y-8374364D01*
X821379Y-8204640D01*
X605360Y-7988621D01*
X435636Y-7734611D01*
X318728Y-7452370D01*
X259130Y-7152749D01*
X259130Y-6847251D01*
X318728Y-6547630D01*
X435636Y-6265389D01*
X605360Y-6011379D01*
X821379Y-5795360D01*
X1075389Y-5625636D01*
X1357630Y-5508728D01*
X1657251Y-5449130D01*
X1962749Y-5449130D01*
X2262370Y-5508728D01*
G37*
G36*
X-6551888Y2715760D02*
G01*
X-6197563Y2645281D01*
X-5696913Y2437905D01*
X-5246340Y2136841D01*
X-4863159Y1753660D01*
X-4562095Y1303087D01*
X-4354719Y802437D01*
X-4249000Y270950D01*
X-4249000Y-270950D01*
X-4354719Y-802437D01*
X-4562095Y-1303087D01*
X-4863159Y-1753660D01*
X-5246340Y-2136841D01*
X-5696913Y-2437905D01*
X-6197563Y-2645281D01*
X-6551888Y-2715760D01*
X-6729049Y-2751000D01*
X-7270951Y-2751000D01*
X-7448112Y-2715760D01*
X-7802437Y-2645281D01*
X-8303087Y-2437905D01*
X-8753660Y-2136841D01*
X-9136841Y-1753660D01*
X-9437905Y-1303087D01*
X-9645281Y-802437D01*
X-9751000Y-270950D01*
X-9751000Y270950D01*
X-9645281Y802437D01*
X-9437905Y1303087D01*
X-9136841Y1753660D01*
X-8753660Y2136841D01*
X-8303087Y2437905D01*
X-7802437Y2645281D01*
X-7448112Y2715760D01*
X-7270951Y2751000D01*
X-6729049Y2751000D01*
X-6551888Y2715760D01*
G37*
G36*
X7448112Y2715760D02*
G01*
X7802437Y2645281D01*
X8303087Y2437905D01*
X8753660Y2136841D01*
X9136841Y1753660D01*
X9437905Y1303087D01*
X9645281Y802437D01*
X9751000Y270950D01*
X9751000Y-270950D01*
X9645281Y-802437D01*
X9437905Y-1303087D01*
X9136841Y-1753660D01*
X8753660Y-2136841D01*
X8303087Y-2437905D01*
X7802437Y-2645281D01*
X7448112Y-2715760D01*
X7270951Y-2751000D01*
X6729049Y-2751000D01*
X6551888Y-2715760D01*
X6197563Y-2645281D01*
X5696913Y-2437905D01*
X5246340Y-2136841D01*
X4863159Y-1753660D01*
X4562095Y-1303087D01*
X4354719Y-802437D01*
X4249000Y-270950D01*
X4249000Y270950D01*
X4354719Y802437D01*
X4562095Y1303087D01*
X4863159Y1753660D01*
X5246340Y2136841D01*
X5696913Y2437905D01*
X6197563Y2645281D01*
X6551888Y2715760D01*
X6729049Y2751000D01*
X7270951Y2751000D01*
X7448112Y2715760D01*
G37*
G36*
X1451000Y-1451000D02*
G01*
X-1451000Y-1451000D01*
X-1451000Y-799000D01*
X1451000Y-799000D01*
X1451000Y-1451000D01*
G37*
G36*
X1451000Y-551000D02*
G01*
X-1451000Y-551000D01*
X-1451000Y551000D01*
X1451000Y551000D01*
X1451000Y-551000D01*
G37*
G36*
X1451000Y799000D02*
G01*
X-1451000Y799000D01*
X-1451000Y1451000D01*
X1451000Y1451000D01*
X1451000Y799000D01*
G37*
G36*
X2262370Y8491272D02*
G01*
X2544611Y8374364D01*
X2798621Y8204640D01*
X3014640Y7988621D01*
X3184364Y7734611D01*
X3301272Y7452370D01*
X3360870Y7152749D01*
X3360870Y6847251D01*
X3301272Y6547630D01*
X3184364Y6265389D01*
X3014640Y6011379D01*
X2798621Y5795360D01*
X2544611Y5625636D01*
X2262370Y5508728D01*
X1962749Y5449130D01*
X1657251Y5449130D01*
X1357630Y5508728D01*
X1075389Y5625636D01*
X821379Y5795360D01*
X605360Y6011379D01*
X435636Y6265389D01*
X318728Y6547630D01*
X259130Y6847251D01*
X259130Y7152749D01*
X318728Y7452370D01*
X435636Y7734611D01*
X605360Y7988621D01*
X821379Y8204640D01*
X1075389Y8374364D01*
X1357630Y8491272D01*
X1657251Y8550870D01*
X1962749Y8550870D01*
X2262370Y8491272D01*
G37*
G36*
X-449130Y5449130D02*
G01*
X-3550870Y5449130D01*
X-3550870Y8550870D01*
X-449130Y8550870D01*
X-449130Y5449130D01*
G37*
M02*
