G04 #@! TF.GenerationSoftware,KiCad,Pcbnew,(5.1.5)-3*
G04 #@! TF.CreationDate,2020-04-01T14:27:29+01:00*
G04 #@! TF.ProjectId,led_board,6c65645f-626f-4617-9264-2e6b69636164,rev?*
G04 #@! TF.SameCoordinates,Original*
G04 #@! TF.FileFunction,Copper,L1,Top*
G04 #@! TF.FilePolarity,Positive*
%FSLAX46Y46*%
G04 Gerber Fmt 4.6, Leading zero omitted, Abs format (unit mm)*
G04 Created by KiCad (PCBNEW (5.1.5)-3) date 2020-04-01 14:27:29*
%MOMM*%
%LPD*%
G04 APERTURE LIST*
%ADD10C,2.999740*%
%ADD11R,2.999740X2.999740*%
%ADD12C,5.400000*%
%ADD13R,2.800000X0.550000*%
%ADD14R,2.800000X1.000000*%
%ADD15C,0.900000*%
%ADD16C,0.250000*%
%ADD17C,0.254000*%
G04 APERTURE END LIST*
D10*
X1810000Y-7000000D03*
D11*
X-2000000Y-7000000D03*
D10*
X1810000Y7000000D03*
D11*
X-2000000Y7000000D03*
D12*
X7000000Y0D03*
X-7000000Y0D03*
D13*
X0Y1125000D03*
X0Y-1125000D03*
D14*
X0Y0D03*
D15*
X-2000000Y7000000D02*
X1810000Y7000000D01*
D16*
X0Y5190000D02*
X0Y1125000D01*
X1810000Y7000000D02*
X0Y5190000D01*
D15*
X-2500000Y-6500000D02*
X-2000000Y-7000000D01*
X0Y0D02*
X-2300000Y0D01*
X-2300000Y0D02*
X-2500000Y-200000D01*
X0Y0D02*
X2300000Y0D01*
X2300000Y0D02*
X2500000Y-200000D01*
X1810000Y-7000000D02*
X2500000Y-6310000D01*
X1810000Y-7000000D02*
X1500000Y-7000000D01*
X2500000Y-5400000D02*
X2500000Y-6310000D01*
X2500000Y-200000D02*
X2500000Y-5400000D01*
X2500000Y-5400000D02*
X900000Y-5400000D01*
X-2000000Y-7000000D02*
X1810000Y-7000000D01*
X-2500000Y-5300000D02*
X-2500000Y-6500000D01*
X-2500000Y-200000D02*
X-2500000Y-5300000D01*
X-700000Y-5400000D02*
X-600000Y-5300000D01*
X-2500000Y-5300000D02*
X-2400000Y-5400000D01*
X-2400000Y-5400000D02*
X-700000Y-5400000D01*
D17*
G36*
X1273000Y-6873000D02*
G01*
X-1273000Y-6873000D01*
X-1273000Y-1027000D01*
X1273000Y-1027000D01*
X1273000Y-6873000D01*
G37*
X1273000Y-6873000D02*
X-1273000Y-6873000D01*
X-1273000Y-1027000D01*
X1273000Y-1027000D01*
X1273000Y-6873000D01*
G36*
X1273000Y1138072D02*
G01*
X-1273000Y1138072D01*
X-1273000Y6873000D01*
X1273000Y6873000D01*
X1273000Y1138072D01*
G37*
X1273000Y1138072D02*
X-1273000Y1138072D01*
X-1273000Y6873000D01*
X1273000Y6873000D01*
X1273000Y1138072D01*
M02*
