G04 #@! TF.GenerationSoftware,KiCad,Pcbnew,(5.1.5)-3*
G04 #@! TF.CreationDate,2020-04-03T10:32:08+01:00*
G04 #@! TF.ProjectId,sync_module,73796e63-5f6d-46f6-9475-6c652e6b6963,rev?*
G04 #@! TF.SameCoordinates,Original*
G04 #@! TF.FileFunction,Legend,Top*
G04 #@! TF.FilePolarity,Positive*
%FSLAX46Y46*%
G04 Gerber Fmt 4.6, Leading zero omitted, Abs format (unit mm)*
G04 Created by KiCad (PCBNEW (5.1.5)-3) date 2020-04-03 10:32:08*
%MOMM*%
%LPD*%
G04 APERTURE LIST*
%ADD10C,0.150000*%
%ADD11C,0.120000*%
%ADD12C,0.100000*%
%ADD13C,0.200000*%
%ADD14C,0.254000*%
G04 APERTURE END LIST*
D10*
X7504761Y-39532142D02*
X7457142Y-39579761D01*
X7314285Y-39627380D01*
X7219047Y-39627380D01*
X7076190Y-39579761D01*
X6980952Y-39484523D01*
X6933333Y-39389285D01*
X6885714Y-39198809D01*
X6885714Y-39055952D01*
X6933333Y-38865476D01*
X6980952Y-38770238D01*
X7076190Y-38675000D01*
X7219047Y-38627380D01*
X7314285Y-38627380D01*
X7457142Y-38675000D01*
X7504761Y-38722619D01*
X7933333Y-39627380D02*
X7933333Y-38627380D01*
X7933333Y-39103571D02*
X8504761Y-39103571D01*
X8504761Y-39627380D02*
X8504761Y-38627380D01*
X8933333Y-39341666D02*
X9409523Y-39341666D01*
X8838095Y-39627380D02*
X9171428Y-38627380D01*
X9504761Y-39627380D01*
X10409523Y-39627380D02*
X10076190Y-39151190D01*
X9838095Y-39627380D02*
X9838095Y-38627380D01*
X10219047Y-38627380D01*
X10314285Y-38675000D01*
X10361904Y-38722619D01*
X10409523Y-38817857D01*
X10409523Y-38960714D01*
X10361904Y-39055952D01*
X10314285Y-39103571D01*
X10219047Y-39151190D01*
X9838095Y-39151190D01*
X11361904Y-38675000D02*
X11266666Y-38627380D01*
X11123809Y-38627380D01*
X10980952Y-38675000D01*
X10885714Y-38770238D01*
X10838095Y-38865476D01*
X10790476Y-39055952D01*
X10790476Y-39198809D01*
X10838095Y-39389285D01*
X10885714Y-39484523D01*
X10980952Y-39579761D01*
X11123809Y-39627380D01*
X11219047Y-39627380D01*
X11361904Y-39579761D01*
X11409523Y-39532142D01*
X11409523Y-39198809D01*
X11219047Y-39198809D01*
X11838095Y-39103571D02*
X12171428Y-39103571D01*
X12314285Y-39627380D02*
X11838095Y-39627380D01*
X11838095Y-38627380D01*
X12314285Y-38627380D01*
X7195238Y-41277380D02*
X7195238Y-40277380D01*
X7671428Y-41277380D02*
X7671428Y-40277380D01*
X8242857Y-41277380D01*
X8242857Y-40277380D01*
X8719047Y-41277380D02*
X8719047Y-40277380D01*
X8719047Y-40753571D02*
X9290476Y-40753571D01*
X9290476Y-41277380D02*
X9290476Y-40277380D01*
X9766666Y-41277380D02*
X9766666Y-40277380D01*
X10576190Y-40753571D02*
X10719047Y-40801190D01*
X10766666Y-40848809D01*
X10814285Y-40944047D01*
X10814285Y-41086904D01*
X10766666Y-41182142D01*
X10719047Y-41229761D01*
X10623809Y-41277380D01*
X10242857Y-41277380D01*
X10242857Y-40277380D01*
X10576190Y-40277380D01*
X10671428Y-40325000D01*
X10719047Y-40372619D01*
X10766666Y-40467857D01*
X10766666Y-40563095D01*
X10719047Y-40658333D01*
X10671428Y-40705952D01*
X10576190Y-40753571D01*
X10242857Y-40753571D01*
X11242857Y-41277380D02*
X11242857Y-40277380D01*
X11576190Y-40277380D02*
X12147619Y-40277380D01*
X11861904Y-41277380D02*
X11861904Y-40277380D01*
X24252380Y-32122619D02*
X24300000Y-32075000D01*
X24395238Y-32027380D01*
X24633333Y-32027380D01*
X24728571Y-32075000D01*
X24776190Y-32122619D01*
X24823809Y-32217857D01*
X24823809Y-32313095D01*
X24776190Y-32455952D01*
X24204761Y-33027380D01*
X24823809Y-33027380D01*
X26442857Y-32979761D02*
X26347619Y-33027380D01*
X26157142Y-33027380D01*
X26061904Y-32979761D01*
X26014285Y-32932142D01*
X25966666Y-32836904D01*
X25966666Y-32551190D01*
X26014285Y-32455952D01*
X26061904Y-32408333D01*
X26157142Y-32360714D01*
X26347619Y-32360714D01*
X26442857Y-32408333D01*
X27252380Y-32979761D02*
X27157142Y-33027380D01*
X26966666Y-33027380D01*
X26871428Y-32979761D01*
X26823809Y-32884523D01*
X26823809Y-32503571D01*
X26871428Y-32408333D01*
X26966666Y-32360714D01*
X27157142Y-32360714D01*
X27252380Y-32408333D01*
X27300000Y-32503571D01*
X27300000Y-32598809D01*
X26823809Y-32694047D01*
X27871428Y-33027380D02*
X27776190Y-32979761D01*
X27728571Y-32884523D01*
X27728571Y-32027380D01*
X28395238Y-33027380D02*
X28300000Y-32979761D01*
X28252380Y-32884523D01*
X28252380Y-32027380D01*
X24609523Y-34677380D02*
X24133333Y-34677380D01*
X24133333Y-33677380D01*
X24942857Y-34677380D02*
X24942857Y-34010714D01*
X24942857Y-33677380D02*
X24895238Y-33725000D01*
X24942857Y-33772619D01*
X24990476Y-33725000D01*
X24942857Y-33677380D01*
X24942857Y-33772619D01*
X25419047Y-34296428D02*
X26180952Y-34296428D01*
X26657142Y-34677380D02*
X26657142Y-34010714D01*
X26657142Y-33677380D02*
X26609523Y-33725000D01*
X26657142Y-33772619D01*
X26704761Y-33725000D01*
X26657142Y-33677380D01*
X26657142Y-33772619D01*
X27276190Y-34677380D02*
X27180952Y-34629761D01*
X27133333Y-34582142D01*
X27085714Y-34486904D01*
X27085714Y-34201190D01*
X27133333Y-34105952D01*
X27180952Y-34058333D01*
X27276190Y-34010714D01*
X27419047Y-34010714D01*
X27514285Y-34058333D01*
X27561904Y-34105952D01*
X27609523Y-34201190D01*
X27609523Y-34486904D01*
X27561904Y-34582142D01*
X27514285Y-34629761D01*
X27419047Y-34677380D01*
X27276190Y-34677380D01*
X28038095Y-34010714D02*
X28038095Y-34677380D01*
X28038095Y-34105952D02*
X28085714Y-34058333D01*
X28180952Y-34010714D01*
X28323809Y-34010714D01*
X28419047Y-34058333D01*
X28466666Y-34153571D01*
X28466666Y-34677380D01*
X30419047Y-28171428D02*
X31180952Y-28171428D01*
X30800000Y-28552380D02*
X30800000Y-27790476D01*
D11*
X30000000Y-29200000D02*
X30000000Y-28100000D01*
X30000000Y-30100000D02*
X30000000Y-31200000D01*
X29400000Y-30100000D02*
X30600000Y-30100000D01*
X28900000Y-29800000D02*
X31100000Y-29800000D01*
X29400000Y-29500000D02*
X30600000Y-29500000D01*
X28900000Y-29200000D02*
X31100000Y-29200000D01*
X22900000Y3600000D02*
X23100000Y3600000D01*
X22500000Y4400000D02*
X21900000Y4900000D01*
X22700000Y4000000D02*
X23100000Y3600000D01*
X22500000Y3400000D02*
X22700000Y3400000D01*
X22500000Y3900000D02*
X22500000Y4900000D01*
X21200000Y4400000D02*
X23500000Y4400000D01*
X23100000Y3600000D02*
X23100000Y3800000D01*
X22300000Y3800000D02*
X22700000Y3400000D01*
X22700000Y3400000D02*
X22700000Y3600000D01*
X21900000Y4900000D02*
X21900000Y3900000D01*
X21900000Y3900000D02*
X22500000Y4400000D01*
X23500000Y4400000D02*
X23000000Y4400000D01*
X-16600000Y-40300000D02*
X-16600000Y-40500000D01*
X-15800000Y-39900000D02*
X-15300000Y-39300000D01*
X-16200000Y-40100000D02*
X-16600000Y-40500000D01*
X-16800000Y-39900000D02*
X-16800000Y-40100000D01*
X-16300000Y-39900000D02*
X-15300000Y-39900000D01*
X-15800000Y-38600000D02*
X-15800000Y-40900000D01*
X-16600000Y-40500000D02*
X-16400000Y-40500000D01*
X-16400000Y-39700000D02*
X-16800000Y-40100000D01*
X-16800000Y-40100000D02*
X-16600000Y-40100000D01*
X-15300000Y-39300000D02*
X-16300000Y-39300000D01*
X-16300000Y-39300000D02*
X-15800000Y-39900000D01*
X-15800000Y-40900000D02*
X-15800000Y-40400000D01*
X-16600000Y-33400000D02*
X-16600000Y-33600000D01*
X-15800000Y-33000000D02*
X-15300000Y-32400000D01*
X-16200000Y-33200000D02*
X-16600000Y-33600000D01*
X-16800000Y-33000000D02*
X-16800000Y-33200000D01*
X-16300000Y-33000000D02*
X-15300000Y-33000000D01*
X-15800000Y-31700000D02*
X-15800000Y-34000000D01*
X-16600000Y-33600000D02*
X-16400000Y-33600000D01*
X-16400000Y-32800000D02*
X-16800000Y-33200000D01*
X-16800000Y-33200000D02*
X-16600000Y-33200000D01*
X-15300000Y-32400000D02*
X-16300000Y-32400000D01*
X-16300000Y-32400000D02*
X-15800000Y-33000000D01*
X-15800000Y-34000000D02*
X-15800000Y-33500000D01*
X-16600000Y-26600000D02*
X-16600000Y-26800000D01*
X-15800000Y-26200000D02*
X-15300000Y-25600000D01*
X-16200000Y-26400000D02*
X-16600000Y-26800000D01*
X-16800000Y-26200000D02*
X-16800000Y-26400000D01*
X-16300000Y-26200000D02*
X-15300000Y-26200000D01*
X-15800000Y-24900000D02*
X-15800000Y-27200000D01*
X-16600000Y-26800000D02*
X-16400000Y-26800000D01*
X-16400000Y-26000000D02*
X-16800000Y-26400000D01*
X-16800000Y-26400000D02*
X-16600000Y-26400000D01*
X-15300000Y-25600000D02*
X-16300000Y-25600000D01*
X-16300000Y-25600000D02*
X-15800000Y-26200000D01*
X-15800000Y-27200000D02*
X-15800000Y-26700000D01*
X-16600000Y-19700000D02*
X-16600000Y-19900000D01*
X-16200000Y-19500000D02*
X-16600000Y-19900000D01*
X-16600000Y-19900000D02*
X-16400000Y-19900000D01*
X-16800000Y-19500000D02*
X-16600000Y-19500000D01*
X-16800000Y-19300000D02*
X-16800000Y-19500000D01*
X-16400000Y-19100000D02*
X-16800000Y-19500000D01*
X-16300000Y-19300000D02*
X-15300000Y-19300000D01*
X-16300000Y-18700000D02*
X-15800000Y-19300000D01*
X-15300000Y-18700000D02*
X-16300000Y-18700000D01*
X-15800000Y-19300000D02*
X-15300000Y-18700000D01*
X-15800000Y-20300000D02*
X-15800000Y-19800000D01*
X-15800000Y-18000000D02*
X-15800000Y-20300000D01*
X28900000Y31400000D02*
G75*
G03X28900000Y31400000I-1500000J0D01*
G01*
X24700000Y31400000D02*
G75*
G03X24700000Y31400000I-1500000J0D01*
G01*
X18600000Y3100000D02*
G75*
G03X18600000Y3100000I-1500000J0D01*
G01*
X-39300000Y-8800000D02*
G75*
G03X-39300000Y-8800000I-1500000J0D01*
G01*
X-35000000Y-12200000D02*
G75*
G03X-35000000Y-12200000I-1500000J0D01*
G01*
X-16400000Y-17500000D02*
G75*
G03X-16400000Y-17500000I-1500000J0D01*
G01*
X7199990Y6049275D02*
X6724990Y6049275D01*
X9944990Y2829275D02*
X9944990Y3304275D01*
X9469990Y2829275D02*
X9944990Y2829275D01*
X6724990Y2829275D02*
X6724990Y3304275D01*
X7199990Y2829275D02*
X6724990Y2829275D01*
X9944990Y6049275D02*
X9944990Y5574275D01*
X9469990Y6049275D02*
X9944990Y6049275D01*
X10049900Y-25897679D02*
X10049900Y-26372679D01*
X14269900Y-22152679D02*
X13794900Y-22152679D01*
X14269900Y-22627679D02*
X14269900Y-22152679D01*
X14269900Y-26372679D02*
X13794900Y-26372679D01*
X14269900Y-25897679D02*
X14269900Y-26372679D01*
X10049900Y-22152679D02*
X10524900Y-22152679D01*
X10049900Y-22627679D02*
X10049900Y-22152679D01*
D12*
X-9004204Y17469456D02*
X8995796Y17469456D01*
X-9004204Y42499456D02*
X-9004204Y48869456D01*
X-9004204Y48869456D02*
X8995796Y48869456D01*
X8995796Y48869456D02*
X8995796Y42499456D01*
D13*
X-10504204Y41429456D02*
X-10504204Y41429456D01*
X-10504204Y41629456D02*
X-10504204Y41629456D01*
X-10504204Y41629456D02*
G75*
G02X-10504204Y41429456I0J-100000D01*
G01*
X-10504204Y41429456D02*
G75*
G02X-10504204Y41629456I0J100000D01*
G01*
D11*
X6688920Y-25696333D02*
X6688920Y-26038867D01*
X7708920Y-25696333D02*
X7708920Y-26038867D01*
X7658920Y-22044664D02*
X7658920Y-20840536D01*
X4938920Y-22044664D02*
X4938920Y-20840536D01*
X-14231080Y-36702600D02*
X-14831080Y-36702600D01*
X-14231080Y-38302600D02*
X-14231080Y-36702600D01*
X-14831080Y-38302600D02*
X-14231080Y-38302600D01*
X-14231080Y-39242600D02*
X-14831080Y-39242600D01*
X-14231080Y-40842600D02*
X-14231080Y-39242600D01*
X-14831080Y-40842600D02*
X-14231080Y-40842600D01*
X-8811080Y-37752600D02*
X-9811080Y-37752600D01*
X-8811080Y-39792600D02*
X-9811080Y-39792600D01*
X-10341080Y-37752600D02*
X-9811080Y-37502600D01*
X-10341080Y-39792600D02*
X-10341080Y-37752600D01*
X-9811080Y-40042600D02*
X-10341080Y-39792600D01*
X-9811080Y-37502600D02*
X-8811080Y-37502600D01*
X-9811080Y-40042600D02*
X-9811080Y-37502600D01*
X-8811080Y-40042600D02*
X-9811080Y-40042600D01*
X-13801080Y-41712600D02*
X-9801080Y-41712600D01*
X-14831080Y-36122600D02*
X-14831080Y-41422600D01*
X-8811080Y-36122600D02*
X-14831080Y-36122600D01*
X-8811080Y-41422600D02*
X-8811080Y-36122600D01*
X-14831080Y-41422600D02*
X-8811080Y-41422600D01*
X19460000Y5970000D02*
X19460000Y5370000D01*
X21060000Y5970000D02*
X19460000Y5970000D01*
X21060000Y5370000D02*
X21060000Y5970000D01*
X22000000Y5970000D02*
X22000000Y5370000D01*
X23600000Y5970000D02*
X22000000Y5970000D01*
X23600000Y5370000D02*
X23600000Y5970000D01*
X20510000Y11390000D02*
X20510000Y10390000D01*
X22550000Y11390000D02*
X22550000Y10390000D01*
X20510000Y9860000D02*
X20260000Y10390000D01*
X22550000Y9860000D02*
X20510000Y9860000D01*
X22800000Y10390000D02*
X22550000Y9860000D01*
X20260000Y10390000D02*
X20260000Y11390000D01*
X22800000Y10390000D02*
X20260000Y10390000D01*
X22800000Y11390000D02*
X22800000Y10390000D01*
X24470000Y6400000D02*
X24470000Y10400000D01*
X18880000Y5370000D02*
X24180000Y5370000D01*
X18880000Y11390000D02*
X18880000Y5370000D01*
X24180000Y11390000D02*
X18880000Y11390000D01*
X24180000Y5370000D02*
X24180000Y11390000D01*
X18581168Y-27852682D02*
X18238634Y-27852682D01*
X18581168Y-28872682D02*
X18238634Y-28872682D01*
X9608920Y-30313867D02*
X9608920Y-29971333D01*
X8588920Y-30313867D02*
X8588920Y-29971333D01*
X18238634Y-24872679D02*
X18581168Y-24872679D01*
X18238634Y-23852679D02*
X18581168Y-23852679D01*
X18228733Y-21890000D02*
X18571267Y-21890000D01*
X18228733Y-22910000D02*
X18571267Y-22910000D01*
X16990000Y-20036252D02*
X16990000Y-19513748D01*
X18410000Y-20036252D02*
X18410000Y-19513748D01*
X12846856Y-16482600D02*
X14050984Y-16482600D01*
X12846856Y-19202600D02*
X14050984Y-19202600D01*
X12846856Y-15802600D02*
X14050984Y-15802600D01*
X12846856Y-13082600D02*
X14050984Y-13082600D01*
X11528920Y-32872600D02*
X8868920Y-32872600D01*
X11528920Y-35472600D02*
X11528920Y-32872600D01*
X8868920Y-35472600D02*
X8868920Y-32872600D01*
X11528920Y-35472600D02*
X8868920Y-35472600D01*
X11528920Y-36742600D02*
X11528920Y-38072600D01*
X11528920Y-38072600D02*
X10198920Y-38072600D01*
X8748920Y-5492600D02*
X8748920Y-8492600D01*
X-3851080Y-5492600D02*
X8748920Y-5492600D01*
X-3851080Y-8492600D02*
X-3851080Y-5492600D01*
X-3851080Y-18092600D02*
X-3851080Y-15092600D01*
X8748920Y-18092600D02*
X-3851080Y-18092600D01*
X8748920Y-15092600D02*
X8748920Y-18092600D01*
X13681170Y-29852681D02*
X13338636Y-29852681D01*
X13681170Y-30872681D02*
X13338636Y-30872681D01*
X18238636Y-30872680D02*
X18581170Y-30872680D01*
X18238636Y-29852680D02*
X18581170Y-29852680D01*
X18581168Y-26872679D02*
X18238634Y-26872679D01*
X18581168Y-25852679D02*
X18238634Y-25852679D01*
X17488920Y-34213867D02*
X17488920Y-33871333D01*
X18508920Y-34213867D02*
X18508920Y-33871333D01*
X15288920Y-33871333D02*
X15288920Y-34213867D01*
X16308920Y-33871333D02*
X16308920Y-34213867D01*
X14108920Y-33871333D02*
X14108920Y-34213867D01*
X13088920Y-33871333D02*
X13088920Y-34213867D01*
X27787400Y-24138920D02*
X28387400Y-24138920D01*
X27787400Y-22538920D02*
X27787400Y-24138920D01*
X28387400Y-22538920D02*
X27787400Y-22538920D01*
X27787400Y-21598920D02*
X28387400Y-21598920D01*
X27787400Y-19998920D02*
X27787400Y-21598920D01*
X28387400Y-19998920D02*
X27787400Y-19998920D01*
X22367400Y-23088920D02*
X23367400Y-23088920D01*
X22367400Y-21048920D02*
X23367400Y-21048920D01*
X23897400Y-23088920D02*
X23367400Y-23338920D01*
X23897400Y-21048920D02*
X23897400Y-23088920D01*
X23367400Y-20798920D02*
X23897400Y-21048920D01*
X23367400Y-23338920D02*
X22367400Y-23338920D01*
X23367400Y-20798920D02*
X23367400Y-23338920D01*
X22367400Y-20798920D02*
X23367400Y-20798920D01*
X27357400Y-19128920D02*
X23357400Y-19128920D01*
X28387400Y-24718920D02*
X28387400Y-19418920D01*
X22367400Y-24718920D02*
X28387400Y-24718920D01*
X22367400Y-19418920D02*
X22367400Y-24718920D01*
X28387400Y-19418920D02*
X22367400Y-19418920D01*
X30558920Y16005336D02*
X30558920Y20109464D01*
X27138920Y16005336D02*
X27138920Y20109464D01*
X29020187Y28967400D02*
X28677653Y28967400D01*
X29020187Y27947400D02*
X28677653Y27947400D01*
X25558920Y16005336D02*
X25558920Y20109464D01*
X22138920Y16005336D02*
X22138920Y20109464D01*
X24070187Y28967400D02*
X23727653Y28967400D01*
X24070187Y27947400D02*
X23727653Y27947400D01*
X35358920Y16005336D02*
X35358920Y20109464D01*
X31938920Y16005336D02*
X31938920Y20109464D01*
X18952653Y19072400D02*
X19295187Y19072400D01*
X18952653Y20092400D02*
X19295187Y20092400D01*
X29807400Y-25507653D02*
X29807400Y-25850187D01*
X30827400Y-25507653D02*
X30827400Y-25850187D01*
X29807400Y-21507653D02*
X29807400Y-21850187D01*
X30827400Y-21507653D02*
X30827400Y-21850187D01*
X27218920Y24197400D02*
X27218920Y25657400D01*
X30378920Y24197400D02*
X30378920Y26357400D01*
X30378920Y24197400D02*
X29448920Y24197400D01*
X27218920Y24197400D02*
X28148920Y24197400D01*
X22318920Y24197400D02*
X22318920Y25657400D01*
X25478920Y24197400D02*
X25478920Y26357400D01*
X25478920Y24197400D02*
X24548920Y24197400D01*
X22318920Y24197400D02*
X23248920Y24197400D01*
X32848920Y11157400D02*
X32648920Y11157400D01*
X32848920Y6857400D02*
X32848920Y11157400D01*
X32698920Y6857400D02*
X32848920Y6857400D01*
X27648920Y6857400D02*
X27798920Y6857400D01*
X27648920Y11157400D02*
X27648920Y6857400D01*
X27848920Y11157400D02*
X27648920Y11157400D01*
X18488920Y17637400D02*
X19948920Y17637400D01*
X18488920Y14477400D02*
X20648920Y14477400D01*
X18488920Y14477400D02*
X18488920Y15407400D01*
X18488920Y17637400D02*
X18488920Y16707400D01*
X-14231080Y-29869266D02*
X-14831080Y-29869266D01*
X-14231080Y-31469266D02*
X-14231080Y-29869266D01*
X-14831080Y-31469266D02*
X-14231080Y-31469266D01*
X-14231080Y-32409266D02*
X-14831080Y-32409266D01*
X-14231080Y-34009266D02*
X-14231080Y-32409266D01*
X-14831080Y-34009266D02*
X-14231080Y-34009266D01*
X-8811080Y-30919266D02*
X-9811080Y-30919266D01*
X-8811080Y-32959266D02*
X-9811080Y-32959266D01*
X-10341080Y-30919266D02*
X-9811080Y-30669266D01*
X-10341080Y-32959266D02*
X-10341080Y-30919266D01*
X-9811080Y-33209266D02*
X-10341080Y-32959266D01*
X-9811080Y-30669266D02*
X-8811080Y-30669266D01*
X-9811080Y-33209266D02*
X-9811080Y-30669266D01*
X-8811080Y-33209266D02*
X-9811080Y-33209266D01*
X-13801080Y-34879266D02*
X-9801080Y-34879266D01*
X-14831080Y-29289266D02*
X-14831080Y-34589266D01*
X-8811080Y-29289266D02*
X-14831080Y-29289266D01*
X-8811080Y-34589266D02*
X-8811080Y-29289266D01*
X-14831080Y-34589266D02*
X-8811080Y-34589266D01*
X-14231080Y-23035933D02*
X-14831080Y-23035933D01*
X-14231080Y-24635933D02*
X-14231080Y-23035933D01*
X-14831080Y-24635933D02*
X-14231080Y-24635933D01*
X-14231080Y-25575933D02*
X-14831080Y-25575933D01*
X-14231080Y-27175933D02*
X-14231080Y-25575933D01*
X-14831080Y-27175933D02*
X-14231080Y-27175933D01*
X-8811080Y-24085933D02*
X-9811080Y-24085933D01*
X-8811080Y-26125933D02*
X-9811080Y-26125933D01*
X-10341080Y-24085933D02*
X-9811080Y-23835933D01*
X-10341080Y-26125933D02*
X-10341080Y-24085933D01*
X-9811080Y-26375933D02*
X-10341080Y-26125933D01*
X-9811080Y-23835933D02*
X-8811080Y-23835933D01*
X-9811080Y-26375933D02*
X-9811080Y-23835933D01*
X-8811080Y-26375933D02*
X-9811080Y-26375933D01*
X-13801080Y-28045933D02*
X-9801080Y-28045933D01*
X-14831080Y-22455933D02*
X-14831080Y-27755933D01*
X-8811080Y-22455933D02*
X-14831080Y-22455933D01*
X-8811080Y-27755933D02*
X-8811080Y-22455933D01*
X-14831080Y-27755933D02*
X-8811080Y-27755933D01*
X-14231080Y-16202600D02*
X-14831080Y-16202600D01*
X-14231080Y-17802600D02*
X-14231080Y-16202600D01*
X-14831080Y-17802600D02*
X-14231080Y-17802600D01*
X-14231080Y-18742600D02*
X-14831080Y-18742600D01*
X-14231080Y-20342600D02*
X-14231080Y-18742600D01*
X-14831080Y-20342600D02*
X-14231080Y-20342600D01*
X-8811080Y-17252600D02*
X-9811080Y-17252600D01*
X-8811080Y-19292600D02*
X-9811080Y-19292600D01*
X-10341080Y-17252600D02*
X-9811080Y-17002600D01*
X-10341080Y-19292600D02*
X-10341080Y-17252600D01*
X-9811080Y-19542600D02*
X-10341080Y-19292600D01*
X-9811080Y-17002600D02*
X-8811080Y-17002600D01*
X-9811080Y-19542600D02*
X-9811080Y-17002600D01*
X-8811080Y-19542600D02*
X-9811080Y-19542600D01*
X-13801080Y-21212600D02*
X-9801080Y-21212600D01*
X-14831080Y-15622600D02*
X-14831080Y-20922600D01*
X-8811080Y-15622600D02*
X-14831080Y-15622600D01*
X-8811080Y-20922600D02*
X-8811080Y-15622600D01*
X-14831080Y-20922600D02*
X-8811080Y-20922600D01*
X27787400Y-31038920D02*
X28387400Y-31038920D01*
X27787400Y-29438920D02*
X27787400Y-31038920D01*
X28387400Y-29438920D02*
X27787400Y-29438920D01*
X27787400Y-28498920D02*
X28387400Y-28498920D01*
X27787400Y-26898920D02*
X27787400Y-28498920D01*
X28387400Y-26898920D02*
X27787400Y-26898920D01*
X22367400Y-29988920D02*
X23367400Y-29988920D01*
X22367400Y-27948920D02*
X23367400Y-27948920D01*
X23897400Y-29988920D02*
X23367400Y-30238920D01*
X23897400Y-27948920D02*
X23897400Y-29988920D01*
X23367400Y-27698920D02*
X23897400Y-27948920D01*
X23367400Y-30238920D02*
X22367400Y-30238920D01*
X23367400Y-27698920D02*
X23367400Y-30238920D01*
X22367400Y-27698920D02*
X23367400Y-27698920D01*
X27357400Y-26028920D02*
X23357400Y-26028920D01*
X28387400Y-31618920D02*
X28387400Y-26318920D01*
X22367400Y-31618920D02*
X28387400Y-31618920D01*
X22367400Y-26318920D02*
X22367400Y-31618920D01*
X28387400Y-26318920D02*
X22367400Y-26318920D01*
X-13638748Y38910000D02*
X-14161252Y38910000D01*
X-13638748Y37490000D02*
X-14161252Y37490000D01*
X-13728733Y39590000D02*
X-14071267Y39590000D01*
X-13728733Y40610000D02*
X-14071267Y40610000D01*
X13894990Y5728024D02*
X13894990Y6250528D01*
X12474990Y5728024D02*
X12474990Y6250528D01*
X13494990Y1460544D02*
X13494990Y1118010D01*
X12474990Y1460544D02*
X12474990Y1118010D01*
X9543320Y-639456D02*
X9543320Y-981990D01*
X10563320Y-639456D02*
X10563320Y-981990D01*
X6523738Y9499276D02*
X7046242Y9499276D01*
X6523738Y8079276D02*
X7046242Y8079276D01*
X6523737Y11999274D02*
X7046241Y11999274D01*
X6523737Y10579274D02*
X7046241Y10579274D01*
X-21940000Y5577936D02*
X-21940000Y6782064D01*
X-19220000Y5577936D02*
X-19220000Y6782064D01*
X-27330347Y808400D02*
X-26987813Y808400D01*
X-27330347Y-211600D02*
X-26987813Y-211600D01*
X-36019813Y-7332600D02*
X-36362347Y-7332600D01*
X-36019813Y-8352600D02*
X-36362347Y-8352600D01*
X-36019812Y-6352600D02*
X-36362346Y-6352600D01*
X-36019812Y-5332600D02*
X-36362346Y-5332600D01*
X-36019813Y-3469600D02*
X-36362347Y-3469600D01*
X-36019813Y-4489600D02*
X-36362347Y-4489600D01*
X-16181080Y-10842600D02*
G75*
G03X-16181080Y-10842600I-4120000J0D01*
G01*
X-20301080Y-14922600D02*
X-20301080Y-6762600D01*
X-20341080Y-14922600D02*
X-20341080Y-6762600D01*
X-20381080Y-14922600D02*
X-20381080Y-6762600D01*
X-20421080Y-14921600D02*
X-20421080Y-6763600D01*
X-20461080Y-14919600D02*
X-20461080Y-6765600D01*
X-20501080Y-14918600D02*
X-20501080Y-6766600D01*
X-20541080Y-14916600D02*
X-20541080Y-6768600D01*
X-20581080Y-14913600D02*
X-20581080Y-6771600D01*
X-20621080Y-14910600D02*
X-20621080Y-6774600D01*
X-20661080Y-14907600D02*
X-20661080Y-6777600D01*
X-20701080Y-14903600D02*
X-20701080Y-6781600D01*
X-20741080Y-14899600D02*
X-20741080Y-6785600D01*
X-20781080Y-14894600D02*
X-20781080Y-6790600D01*
X-20821080Y-14890600D02*
X-20821080Y-6794600D01*
X-20861080Y-14884600D02*
X-20861080Y-6800600D01*
X-20901080Y-14879600D02*
X-20901080Y-6805600D01*
X-20941080Y-14872600D02*
X-20941080Y-6812600D01*
X-20981080Y-14866600D02*
X-20981080Y-6818600D01*
X-21022080Y-14859600D02*
X-21022080Y-11882600D01*
X-21022080Y-9802600D02*
X-21022080Y-6825600D01*
X-21062080Y-14852600D02*
X-21062080Y-11882600D01*
X-21062080Y-9802600D02*
X-21062080Y-6832600D01*
X-21102080Y-14844600D02*
X-21102080Y-11882600D01*
X-21102080Y-9802600D02*
X-21102080Y-6840600D01*
X-21142080Y-14836600D02*
X-21142080Y-11882600D01*
X-21142080Y-9802600D02*
X-21142080Y-6848600D01*
X-21182080Y-14827600D02*
X-21182080Y-11882600D01*
X-21182080Y-9802600D02*
X-21182080Y-6857600D01*
X-21222080Y-14818600D02*
X-21222080Y-11882600D01*
X-21222080Y-9802600D02*
X-21222080Y-6866600D01*
X-21262080Y-14809600D02*
X-21262080Y-11882600D01*
X-21262080Y-9802600D02*
X-21262080Y-6875600D01*
X-21302080Y-14799600D02*
X-21302080Y-11882600D01*
X-21302080Y-9802600D02*
X-21302080Y-6885600D01*
X-21342080Y-14789600D02*
X-21342080Y-11882600D01*
X-21342080Y-9802600D02*
X-21342080Y-6895600D01*
X-21382080Y-14778600D02*
X-21382080Y-11882600D01*
X-21382080Y-9802600D02*
X-21382080Y-6906600D01*
X-21422080Y-14767600D02*
X-21422080Y-11882600D01*
X-21422080Y-9802600D02*
X-21422080Y-6917600D01*
X-21462080Y-14756600D02*
X-21462080Y-11882600D01*
X-21462080Y-9802600D02*
X-21462080Y-6928600D01*
X-21502080Y-14744600D02*
X-21502080Y-11882600D01*
X-21502080Y-9802600D02*
X-21502080Y-6940600D01*
X-21542080Y-14731600D02*
X-21542080Y-11882600D01*
X-21542080Y-9802600D02*
X-21542080Y-6953600D01*
X-21582080Y-14719600D02*
X-21582080Y-11882600D01*
X-21582080Y-9802600D02*
X-21582080Y-6965600D01*
X-21622080Y-14705600D02*
X-21622080Y-11882600D01*
X-21622080Y-9802600D02*
X-21622080Y-6979600D01*
X-21662080Y-14692600D02*
X-21662080Y-11882600D01*
X-21662080Y-9802600D02*
X-21662080Y-6992600D01*
X-21702080Y-14677600D02*
X-21702080Y-11882600D01*
X-21702080Y-9802600D02*
X-21702080Y-7007600D01*
X-21742080Y-14663600D02*
X-21742080Y-11882600D01*
X-21742080Y-9802600D02*
X-21742080Y-7021600D01*
X-21782080Y-14647600D02*
X-21782080Y-11882600D01*
X-21782080Y-9802600D02*
X-21782080Y-7037600D01*
X-21822080Y-14632600D02*
X-21822080Y-11882600D01*
X-21822080Y-9802600D02*
X-21822080Y-7052600D01*
X-21862080Y-14616600D02*
X-21862080Y-11882600D01*
X-21862080Y-9802600D02*
X-21862080Y-7068600D01*
X-21902080Y-14599600D02*
X-21902080Y-11882600D01*
X-21902080Y-9802600D02*
X-21902080Y-7085600D01*
X-21942080Y-14582600D02*
X-21942080Y-11882600D01*
X-21942080Y-9802600D02*
X-21942080Y-7102600D01*
X-21982080Y-14564600D02*
X-21982080Y-11882600D01*
X-21982080Y-9802600D02*
X-21982080Y-7120600D01*
X-22022080Y-14546600D02*
X-22022080Y-11882600D01*
X-22022080Y-9802600D02*
X-22022080Y-7138600D01*
X-22062080Y-14528600D02*
X-22062080Y-11882600D01*
X-22062080Y-9802600D02*
X-22062080Y-7156600D01*
X-22102080Y-14508600D02*
X-22102080Y-11882600D01*
X-22102080Y-9802600D02*
X-22102080Y-7176600D01*
X-22142080Y-14489600D02*
X-22142080Y-11882600D01*
X-22142080Y-9802600D02*
X-22142080Y-7195600D01*
X-22182080Y-14469600D02*
X-22182080Y-11882600D01*
X-22182080Y-9802600D02*
X-22182080Y-7215600D01*
X-22222080Y-14448600D02*
X-22222080Y-11882600D01*
X-22222080Y-9802600D02*
X-22222080Y-7236600D01*
X-22262080Y-14426600D02*
X-22262080Y-11882600D01*
X-22262080Y-9802600D02*
X-22262080Y-7258600D01*
X-22302080Y-14404600D02*
X-22302080Y-11882600D01*
X-22302080Y-9802600D02*
X-22302080Y-7280600D01*
X-22342080Y-14382600D02*
X-22342080Y-11882600D01*
X-22342080Y-9802600D02*
X-22342080Y-7302600D01*
X-22382080Y-14359600D02*
X-22382080Y-11882600D01*
X-22382080Y-9802600D02*
X-22382080Y-7325600D01*
X-22422080Y-14335600D02*
X-22422080Y-11882600D01*
X-22422080Y-9802600D02*
X-22422080Y-7349600D01*
X-22462080Y-14311600D02*
X-22462080Y-11882600D01*
X-22462080Y-9802600D02*
X-22462080Y-7373600D01*
X-22502080Y-14286600D02*
X-22502080Y-11882600D01*
X-22502080Y-9802600D02*
X-22502080Y-7398600D01*
X-22542080Y-14260600D02*
X-22542080Y-11882600D01*
X-22542080Y-9802600D02*
X-22542080Y-7424600D01*
X-22582080Y-14234600D02*
X-22582080Y-11882600D01*
X-22582080Y-9802600D02*
X-22582080Y-7450600D01*
X-22622080Y-14207600D02*
X-22622080Y-11882600D01*
X-22622080Y-9802600D02*
X-22622080Y-7477600D01*
X-22662080Y-14180600D02*
X-22662080Y-11882600D01*
X-22662080Y-9802600D02*
X-22662080Y-7504600D01*
X-22702080Y-14151600D02*
X-22702080Y-11882600D01*
X-22702080Y-9802600D02*
X-22702080Y-7533600D01*
X-22742080Y-14122600D02*
X-22742080Y-11882600D01*
X-22742080Y-9802600D02*
X-22742080Y-7562600D01*
X-22782080Y-14092600D02*
X-22782080Y-11882600D01*
X-22782080Y-9802600D02*
X-22782080Y-7592600D01*
X-22822080Y-14062600D02*
X-22822080Y-11882600D01*
X-22822080Y-9802600D02*
X-22822080Y-7622600D01*
X-22862080Y-14031600D02*
X-22862080Y-11882600D01*
X-22862080Y-9802600D02*
X-22862080Y-7653600D01*
X-22902080Y-13998600D02*
X-22902080Y-11882600D01*
X-22902080Y-9802600D02*
X-22902080Y-7686600D01*
X-22942080Y-13966600D02*
X-22942080Y-11882600D01*
X-22942080Y-9802600D02*
X-22942080Y-7718600D01*
X-22982080Y-13932600D02*
X-22982080Y-11882600D01*
X-22982080Y-9802600D02*
X-22982080Y-7752600D01*
X-23022080Y-13897600D02*
X-23022080Y-11882600D01*
X-23022080Y-9802600D02*
X-23022080Y-7787600D01*
X-23062080Y-13861600D02*
X-23062080Y-11882600D01*
X-23062080Y-9802600D02*
X-23062080Y-7823600D01*
X-23102080Y-13825600D02*
X-23102080Y-7859600D01*
X-23142080Y-13787600D02*
X-23142080Y-7897600D01*
X-23182080Y-13749600D02*
X-23182080Y-7935600D01*
X-23222080Y-13709600D02*
X-23222080Y-7975600D01*
X-23262080Y-13668600D02*
X-23262080Y-8016600D01*
X-23302080Y-13626600D02*
X-23302080Y-8058600D01*
X-23342080Y-13583600D02*
X-23342080Y-8101600D01*
X-23382080Y-13539600D02*
X-23382080Y-8145600D01*
X-23422080Y-13493600D02*
X-23422080Y-8191600D01*
X-23462080Y-13446600D02*
X-23462080Y-8238600D01*
X-23502080Y-13398600D02*
X-23502080Y-8286600D01*
X-23542080Y-13347600D02*
X-23542080Y-8337600D01*
X-23582080Y-13296600D02*
X-23582080Y-8388600D01*
X-23622080Y-13242600D02*
X-23622080Y-8442600D01*
X-23662080Y-13187600D02*
X-23662080Y-8497600D01*
X-23702080Y-13129600D02*
X-23702080Y-8555600D01*
X-23742080Y-13070600D02*
X-23742080Y-8614600D01*
X-23782080Y-13008600D02*
X-23782080Y-8676600D01*
X-23822080Y-12944600D02*
X-23822080Y-8740600D01*
X-23862080Y-12876600D02*
X-23862080Y-8808600D01*
X-23902080Y-12806600D02*
X-23902080Y-8878600D01*
X-23942080Y-12732600D02*
X-23942080Y-8952600D01*
X-23982080Y-12655600D02*
X-23982080Y-9029600D01*
X-24022080Y-12573600D02*
X-24022080Y-9111600D01*
X-24062080Y-12487600D02*
X-24062080Y-9197600D01*
X-24102080Y-12394600D02*
X-24102080Y-9290600D01*
X-24142080Y-12295600D02*
X-24142080Y-9389600D01*
X-24182080Y-12188600D02*
X-24182080Y-9496600D01*
X-24222080Y-12071600D02*
X-24222080Y-9613600D01*
X-24262080Y-11940600D02*
X-24262080Y-9744600D01*
X-24302080Y-11790600D02*
X-24302080Y-9894600D01*
X-24342080Y-11610600D02*
X-24342080Y-10074600D01*
X-24382080Y-11375600D02*
X-24382080Y-10309600D01*
X-15891382Y-13157600D02*
X-16691382Y-13157600D01*
X-16291382Y-13557600D02*
X-16291382Y-12757600D01*
X-30797813Y-8974600D02*
X-31140347Y-8974600D01*
X-30797813Y-7954600D02*
X-31140347Y-7954600D01*
X-28603730Y12559537D02*
X-28307086Y12388270D01*
X-28093730Y13442882D02*
X-27797086Y13271615D01*
X-29143322Y11624936D02*
X-28846678Y11453669D01*
X-29653322Y10741591D02*
X-29356678Y10570324D01*
X-15051080Y-7792600D02*
X-6651080Y-7792600D01*
X-15051080Y-14292600D02*
X-6651080Y-14292600D01*
X-15051080Y-14292600D02*
X-15051080Y-7792600D01*
D12*
X-3760000Y-30900000D02*
G75*
G03X-3760000Y-30900000I-50000J0D01*
G01*
D11*
X-3151080Y-23592600D02*
X3348920Y-23592600D01*
X-3151080Y-23592600D02*
X-3151080Y-31992600D01*
X3348920Y-23592600D02*
X3348920Y-31992600D01*
D12*
X-28089230Y15508142D02*
X-25689230Y19665064D01*
X-25689230Y19665064D02*
X-23610770Y18465064D01*
X-23610770Y18465064D02*
X-26010770Y14308142D01*
X-26010770Y14308142D02*
X-28089230Y15508142D01*
D13*
X-28085641Y16314360D02*
X-28085641Y16314360D01*
X-27985641Y16487565D02*
X-27985641Y16487565D01*
X-27985641Y16487564D02*
G75*
G03X-28085641Y16314360I-50000J-86602D01*
G01*
X-28085641Y16314359D02*
G75*
G03X-27985641Y16487565I50000J86603D01*
G01*
D11*
X2784991Y11889276D02*
X4134991Y11889276D01*
X4134991Y11889276D02*
X4134991Y4089276D01*
X4134991Y4089276D02*
X2784991Y4089276D01*
X-1215009Y4089276D02*
X-2565009Y4089276D01*
X-2565009Y4089276D02*
X-2565009Y11889276D01*
X-2565009Y11889276D02*
X-1215009Y11889276D01*
X-13600000Y120000D02*
X-16600000Y120000D01*
X-16600000Y120000D02*
X-16600000Y12720000D01*
X-16600000Y12720000D02*
X-13600000Y12720000D01*
X-7000000Y12720000D02*
X-4000000Y12720000D01*
X-4000000Y12720000D02*
X-4000000Y120000D01*
X-4000000Y120000D02*
X-7000000Y120000D01*
X-34735080Y-101598D02*
X-36195080Y-101598D01*
X-34735080Y3058402D02*
X-36895080Y3058402D01*
X-34735080Y3058402D02*
X-34735080Y2128402D01*
X-34735080Y-101598D02*
X-34735080Y828402D01*
X-13366081Y-1042600D02*
X-13366081Y-1242600D01*
X-9066081Y-1042600D02*
X-13366081Y-1042600D01*
X-9066081Y-1192600D02*
X-9066081Y-1042600D01*
X-9066081Y-6242600D02*
X-9066081Y-6092600D01*
X-13366081Y-6242600D02*
X-9066081Y-6242600D01*
X-13366081Y-6042600D02*
X-13366081Y-6242600D01*
X-27706768Y-32086338D02*
X-26901365Y-31621338D01*
X-24970128Y-30506338D02*
X-25775531Y-30971338D01*
X-24970128Y-30506338D02*
X-26050128Y-28635723D01*
X-27706768Y-32086338D02*
X-28436768Y-30821941D01*
X-24900952Y-28771284D02*
X-25074157Y-28871284D01*
X-25074157Y-28871284D02*
X-22924157Y-32595193D01*
X-22924157Y-32595193D02*
X-22794253Y-32520193D01*
X-18550729Y-30070193D02*
X-18420825Y-29995193D01*
X-18420825Y-29995193D02*
X-20570825Y-26271284D01*
X-20570825Y-26271284D02*
X-20744030Y-26371284D01*
X-34482514Y-20350400D02*
X-33677111Y-19885400D01*
X-31745874Y-18770400D02*
X-32551277Y-19235400D01*
X-31745874Y-18770400D02*
X-32825874Y-16899785D01*
X-34482514Y-20350400D02*
X-35212514Y-19086003D01*
X-30308272Y-17940401D02*
X-31038272Y-16676004D01*
X-27571632Y-16360401D02*
X-28651632Y-14489786D01*
X-27571632Y-16360401D02*
X-28377035Y-16825401D01*
X-30308272Y-17940401D02*
X-29502869Y-17475401D01*
X14471267Y35610000D02*
X14128733Y35610000D01*
X14471267Y34590000D02*
X14128733Y34590000D01*
X14471267Y38390000D02*
X14128733Y38390000D01*
X14471267Y39410000D02*
X14128733Y39410000D01*
X2474991Y-1006990D02*
X2474991Y-664456D01*
X3494991Y-1006990D02*
X3494991Y-664456D01*
X4474990Y-981990D02*
X4474990Y-639456D01*
X5494990Y-981990D02*
X5494990Y-639456D01*
X6374991Y-639457D02*
X6374991Y-981991D01*
X7394991Y-639457D02*
X7394991Y-981991D01*
X-38668080Y1307133D02*
X-38668080Y1649667D01*
X-39688080Y1307133D02*
X-39688080Y1649667D01*
X-31348347Y1984399D02*
X-31005813Y1984399D01*
X-31348347Y3004399D02*
X-31005813Y3004399D01*
X-31348346Y845400D02*
X-31005812Y845400D01*
X-31348346Y-174600D02*
X-31005812Y-174600D01*
X-25679346Y1947400D02*
X-25336812Y1947400D01*
X-25679346Y2967400D02*
X-25336812Y2967400D01*
X-39081079Y-5113866D02*
X-39081079Y-4771332D01*
X-40101079Y-5113866D02*
X-40101079Y-4771332D01*
X-36362347Y-1532601D02*
X-36019813Y-1532601D01*
X-36362347Y-2552601D02*
X-36019813Y-2552601D01*
X-17899015Y-1290000D02*
X-22003143Y-1290000D01*
X-17899015Y-4710000D02*
X-22003143Y-4710000D01*
X-26733813Y-7954600D02*
X-27076347Y-7954600D01*
X-26733813Y-8974600D02*
X-27076347Y-8974600D01*
X-30797813Y-10240600D02*
X-31140347Y-10240600D01*
X-30797813Y-11260600D02*
X-31140347Y-11260600D01*
X-24716295Y-34288090D02*
X-25012939Y-34459357D01*
X-25226295Y-33404745D02*
X-25522939Y-33576012D01*
X-22452361Y-22454609D02*
X-24504425Y-18900329D01*
X-19490555Y-20744609D02*
X-21542619Y-17190329D01*
X-35360010Y-15278019D02*
X-35656654Y-15449286D01*
X-34850010Y-16161364D02*
X-35146654Y-16332631D01*
X-27567380Y-25407765D02*
X-29619444Y-21853485D01*
X-30529186Y-27117765D02*
X-32581250Y-23563485D01*
X-30694630Y-13768674D02*
X-30991274Y-13939941D01*
X-31204630Y-12885329D02*
X-31501274Y-13056596D01*
X-26502168Y-24792766D02*
X-28554232Y-21238486D01*
X-23540362Y-23082766D02*
X-25592426Y-19528486D01*
X-22179874Y20723449D02*
X-22351141Y20426805D01*
X-23063219Y21233449D02*
X-23234486Y20936805D01*
X-24448859Y22033449D02*
X-24620126Y21736805D01*
X-23565514Y21523449D02*
X-23736781Y21226805D01*
X-28937080Y-6579600D02*
X-26987080Y-6579600D01*
X-28937080Y-6579600D02*
X-30887080Y-6579600D01*
X-28937080Y-1459600D02*
X-26987080Y-1459600D01*
X-28937080Y-1459600D02*
X-32387080Y-1459600D01*
D10*
X26138095Y34347619D02*
X26709523Y34347619D01*
X26423809Y33347619D02*
X26423809Y34347619D01*
X27042857Y33347619D02*
X27042857Y34347619D01*
X27423809Y34347619D01*
X27519047Y34300000D01*
X27566666Y34252380D01*
X27614285Y34157142D01*
X27614285Y34014285D01*
X27566666Y33919047D01*
X27519047Y33871428D01*
X27423809Y33823809D01*
X27042857Y33823809D01*
X28471428Y34347619D02*
X28280952Y34347619D01*
X28185714Y34300000D01*
X28138095Y34252380D01*
X28042857Y34109523D01*
X27995238Y33919047D01*
X27995238Y33538095D01*
X28042857Y33442857D01*
X28090476Y33395238D01*
X28185714Y33347619D01*
X28376190Y33347619D01*
X28471428Y33395238D01*
X28519047Y33442857D01*
X28566666Y33538095D01*
X28566666Y33776190D01*
X28519047Y33871428D01*
X28471428Y33919047D01*
X28376190Y33966666D01*
X28185714Y33966666D01*
X28090476Y33919047D01*
X28042857Y33871428D01*
X27995238Y33776190D01*
X21938095Y34347619D02*
X22509523Y34347619D01*
X22223809Y33347619D02*
X22223809Y34347619D01*
X22842857Y33347619D02*
X22842857Y34347619D01*
X23223809Y34347619D01*
X23319047Y34300000D01*
X23366666Y34252380D01*
X23414285Y34157142D01*
X23414285Y34014285D01*
X23366666Y33919047D01*
X23319047Y33871428D01*
X23223809Y33823809D01*
X22842857Y33823809D01*
X24319047Y34347619D02*
X23842857Y34347619D01*
X23795238Y33871428D01*
X23842857Y33919047D01*
X23938095Y33966666D01*
X24176190Y33966666D01*
X24271428Y33919047D01*
X24319047Y33871428D01*
X24366666Y33776190D01*
X24366666Y33538095D01*
X24319047Y33442857D01*
X24271428Y33395238D01*
X24176190Y33347619D01*
X23938095Y33347619D01*
X23842857Y33395238D01*
X23795238Y33442857D01*
X15838095Y547619D02*
X16409523Y547619D01*
X16123809Y-452380D02*
X16123809Y547619D01*
X16742857Y-452380D02*
X16742857Y547619D01*
X17123809Y547619D01*
X17219047Y500000D01*
X17266666Y452380D01*
X17314285Y357142D01*
X17314285Y214285D01*
X17266666Y119047D01*
X17219047Y71428D01*
X17123809Y23809D01*
X16742857Y23809D01*
X18171428Y214285D02*
X18171428Y-452380D01*
X17933333Y595238D02*
X17695238Y-119047D01*
X18314285Y-119047D01*
X-44961904Y-6252380D02*
X-44390476Y-6252380D01*
X-44676190Y-7252380D02*
X-44676190Y-6252380D01*
X-44057142Y-7252380D02*
X-44057142Y-6252380D01*
X-43676190Y-6252380D01*
X-43580952Y-6300000D01*
X-43533333Y-6347619D01*
X-43485714Y-6442857D01*
X-43485714Y-6585714D01*
X-43533333Y-6680952D01*
X-43580952Y-6728571D01*
X-43676190Y-6776190D01*
X-44057142Y-6776190D01*
X-43152380Y-6252380D02*
X-42533333Y-6252380D01*
X-42866666Y-6633333D01*
X-42723809Y-6633333D01*
X-42628571Y-6680952D01*
X-42580952Y-6728571D01*
X-42533333Y-6823809D01*
X-42533333Y-7061904D01*
X-42580952Y-7157142D01*
X-42628571Y-7204761D01*
X-42723809Y-7252380D01*
X-43009523Y-7252380D01*
X-43104761Y-7204761D01*
X-43152380Y-7157142D01*
X-41361904Y-11552380D02*
X-40790476Y-11552380D01*
X-41076190Y-12552380D02*
X-41076190Y-11552380D01*
X-40457142Y-12552380D02*
X-40457142Y-11552380D01*
X-40076190Y-11552380D01*
X-39980952Y-11600000D01*
X-39933333Y-11647619D01*
X-39885714Y-11742857D01*
X-39885714Y-11885714D01*
X-39933333Y-11980952D01*
X-39980952Y-12028571D01*
X-40076190Y-12076190D01*
X-40457142Y-12076190D01*
X-39504761Y-11647619D02*
X-39457142Y-11600000D01*
X-39361904Y-11552380D01*
X-39123809Y-11552380D01*
X-39028571Y-11600000D01*
X-38980952Y-11647619D01*
X-38933333Y-11742857D01*
X-38933333Y-11838095D01*
X-38980952Y-11980952D01*
X-39552380Y-12552380D01*
X-38933333Y-12552380D01*
X-19361904Y-19652380D02*
X-18790476Y-19652380D01*
X-19076190Y-20652380D02*
X-19076190Y-19652380D01*
X-18457142Y-20652380D02*
X-18457142Y-19652380D01*
X-18076190Y-19652380D01*
X-17980952Y-19700000D01*
X-17933333Y-19747619D01*
X-17885714Y-19842857D01*
X-17885714Y-19985714D01*
X-17933333Y-20080952D01*
X-17980952Y-20128571D01*
X-18076190Y-20176190D01*
X-18457142Y-20176190D01*
X-16933333Y-20652380D02*
X-17504761Y-20652380D01*
X-17219047Y-20652380D02*
X-17219047Y-19652380D01*
X-17314285Y-19795238D01*
X-17409523Y-19890476D01*
X-17504761Y-19938095D01*
X4538095Y6447619D02*
X4538095Y5638095D01*
X4585714Y5542857D01*
X4633333Y5495238D01*
X4728571Y5447619D01*
X4919047Y5447619D01*
X5014285Y5495238D01*
X5061904Y5542857D01*
X5109523Y5638095D01*
X5109523Y6447619D01*
X5538095Y6352380D02*
X5585714Y6400000D01*
X5680952Y6447619D01*
X5919047Y6447619D01*
X6014285Y6400000D01*
X6061904Y6352380D01*
X6109523Y6257142D01*
X6109523Y6161904D01*
X6061904Y6019047D01*
X5490476Y5447619D01*
X6109523Y5447619D01*
X10138095Y-27752380D02*
X10138095Y-28561904D01*
X10185714Y-28657142D01*
X10233333Y-28704761D01*
X10328571Y-28752380D01*
X10519047Y-28752380D01*
X10614285Y-28704761D01*
X10661904Y-28657142D01*
X10709523Y-28561904D01*
X10709523Y-27752380D01*
X11709523Y-28752380D02*
X11138095Y-28752380D01*
X11423809Y-28752380D02*
X11423809Y-27752380D01*
X11328571Y-27895238D01*
X11233333Y-27990476D01*
X11138095Y-28038095D01*
X-7433333Y-41652380D02*
X-7433333Y-42366666D01*
X-7480952Y-42509523D01*
X-7576190Y-42604761D01*
X-7719047Y-42652380D01*
X-7814285Y-42652380D01*
X-7052380Y-41652380D02*
X-6433333Y-41652380D01*
X-6766666Y-42033333D01*
X-6623809Y-42033333D01*
X-6528571Y-42080952D01*
X-6480952Y-42128571D01*
X-6433333Y-42223809D01*
X-6433333Y-42461904D01*
X-6480952Y-42557142D01*
X-6528571Y-42604761D01*
X-6623809Y-42652380D01*
X-6909523Y-42652380D01*
X-7004761Y-42604761D01*
X-7052380Y-42557142D01*
D14*
X-15139761Y41525476D02*
X-15139761Y42795476D01*
X-13809285Y41646428D02*
X-13869761Y41585952D01*
X-14051190Y41525476D01*
X-14172142Y41525476D01*
X-14353571Y41585952D01*
X-14474523Y41706904D01*
X-14535000Y41827857D01*
X-14595476Y42069761D01*
X-14595476Y42251190D01*
X-14535000Y42493095D01*
X-14474523Y42614047D01*
X-14353571Y42735000D01*
X-14172142Y42795476D01*
X-14051190Y42795476D01*
X-13869761Y42735000D01*
X-13809285Y42674523D01*
X-12599761Y41525476D02*
X-13325476Y41525476D01*
X-12962619Y41525476D02*
X-12962619Y42795476D01*
X-13083571Y42614047D01*
X-13204523Y42493095D01*
X-13325476Y42432619D01*
D10*
X5757142Y-26066666D02*
X5804761Y-26114285D01*
X5852380Y-26257142D01*
X5852380Y-26352380D01*
X5804761Y-26495238D01*
X5709523Y-26590476D01*
X5614285Y-26638095D01*
X5423809Y-26685714D01*
X5280952Y-26685714D01*
X5090476Y-26638095D01*
X4995238Y-26590476D01*
X4900000Y-26495238D01*
X4852380Y-26352380D01*
X4852380Y-26257142D01*
X4900000Y-26114285D01*
X4947619Y-26066666D01*
X4852380Y-25733333D02*
X4852380Y-25114285D01*
X5233333Y-25447619D01*
X5233333Y-25304761D01*
X5280952Y-25209523D01*
X5328571Y-25161904D01*
X5423809Y-25114285D01*
X5661904Y-25114285D01*
X5757142Y-25161904D01*
X5804761Y-25209523D01*
X5852380Y-25304761D01*
X5852380Y-25590476D01*
X5804761Y-25685714D01*
X5757142Y-25733333D01*
X4376062Y-21609266D02*
X4423681Y-21656885D01*
X4471300Y-21799742D01*
X4471300Y-21894980D01*
X4423681Y-22037838D01*
X4328443Y-22133076D01*
X4233205Y-22180695D01*
X4042729Y-22228314D01*
X3899872Y-22228314D01*
X3709396Y-22180695D01*
X3614158Y-22133076D01*
X3518920Y-22037838D01*
X3471300Y-21894980D01*
X3471300Y-21799742D01*
X3518920Y-21656885D01*
X3566539Y-21609266D01*
X3804634Y-20752123D02*
X4471300Y-20752123D01*
X3423681Y-20990219D02*
X4137967Y-21228314D01*
X4137967Y-20609266D01*
X-17309523Y-37052380D02*
X-17309523Y-37766666D01*
X-17357142Y-37909523D01*
X-17452380Y-38004761D01*
X-17595238Y-38052380D01*
X-17690476Y-38052380D01*
X-16309523Y-38052380D02*
X-16880952Y-38052380D01*
X-16595238Y-38052380D02*
X-16595238Y-37052380D01*
X-16690476Y-37195238D01*
X-16785714Y-37290476D01*
X-16880952Y-37338095D01*
X-15404761Y-37052380D02*
X-15880952Y-37052380D01*
X-15928571Y-37528571D01*
X-15880952Y-37480952D01*
X-15785714Y-37433333D01*
X-15547619Y-37433333D01*
X-15452380Y-37480952D01*
X-15404761Y-37528571D01*
X-15357142Y-37623809D01*
X-15357142Y-37861904D01*
X-15404761Y-37957142D01*
X-15452380Y-38004761D01*
X-15547619Y-38052380D01*
X-15785714Y-38052380D01*
X-15880952Y-38004761D01*
X-15928571Y-37957142D01*
X19690476Y3947619D02*
X19690476Y3233333D01*
X19642857Y3090476D01*
X19547619Y2995238D01*
X19404761Y2947619D01*
X19309523Y2947619D01*
X20690476Y2947619D02*
X20119047Y2947619D01*
X20404761Y2947619D02*
X20404761Y3947619D01*
X20309523Y3804761D01*
X20214285Y3709523D01*
X20119047Y3661904D01*
X21547619Y3614285D02*
X21547619Y2947619D01*
X21309523Y3995238D02*
X21071428Y3280952D01*
X21690476Y3280952D01*
X15633333Y-28852380D02*
X15300000Y-28376190D01*
X15061904Y-28852380D02*
X15061904Y-27852380D01*
X15442857Y-27852380D01*
X15538095Y-27900000D01*
X15585714Y-27947619D01*
X15633333Y-28042857D01*
X15633333Y-28185714D01*
X15585714Y-28280952D01*
X15538095Y-28328571D01*
X15442857Y-28376190D01*
X15061904Y-28376190D01*
X15966666Y-27852380D02*
X16633333Y-27852380D01*
X16204761Y-28852380D01*
X8121300Y-30309266D02*
X7645110Y-30642600D01*
X8121300Y-30880695D02*
X7121300Y-30880695D01*
X7121300Y-30499742D01*
X7168920Y-30404504D01*
X7216539Y-30356885D01*
X7311777Y-30309266D01*
X7454634Y-30309266D01*
X7549872Y-30356885D01*
X7597491Y-30404504D01*
X7645110Y-30499742D01*
X7645110Y-30880695D01*
X7121300Y-29452123D02*
X7121300Y-29642600D01*
X7168920Y-29737838D01*
X7216539Y-29785457D01*
X7359396Y-29880695D01*
X7549872Y-29928314D01*
X7930824Y-29928314D01*
X8026062Y-29880695D01*
X8073681Y-29833076D01*
X8121300Y-29737838D01*
X8121300Y-29547361D01*
X8073681Y-29452123D01*
X8026062Y-29404504D01*
X7930824Y-29356885D01*
X7692729Y-29356885D01*
X7597491Y-29404504D01*
X7549872Y-29452123D01*
X7502253Y-29547361D01*
X7502253Y-29737838D01*
X7549872Y-29833076D01*
X7597491Y-29880695D01*
X7692729Y-29928314D01*
X15633333Y-24757142D02*
X15585714Y-24804761D01*
X15442857Y-24852380D01*
X15347619Y-24852380D01*
X15204761Y-24804761D01*
X15109523Y-24709523D01*
X15061904Y-24614285D01*
X15014285Y-24423809D01*
X15014285Y-24280952D01*
X15061904Y-24090476D01*
X15109523Y-23995238D01*
X15204761Y-23900000D01*
X15347619Y-23852380D01*
X15442857Y-23852380D01*
X15585714Y-23900000D01*
X15633333Y-23947619D01*
X16538095Y-23852380D02*
X16061904Y-23852380D01*
X16014285Y-24328571D01*
X16061904Y-24280952D01*
X16157142Y-24233333D01*
X16395238Y-24233333D01*
X16490476Y-24280952D01*
X16538095Y-24328571D01*
X16585714Y-24423809D01*
X16585714Y-24661904D01*
X16538095Y-24757142D01*
X16490476Y-24804761D01*
X16395238Y-24852380D01*
X16157142Y-24852380D01*
X16061904Y-24804761D01*
X16014285Y-24757142D01*
X15633333Y-22757142D02*
X15585714Y-22804761D01*
X15442857Y-22852380D01*
X15347619Y-22852380D01*
X15204761Y-22804761D01*
X15109523Y-22709523D01*
X15061904Y-22614285D01*
X15014285Y-22423809D01*
X15014285Y-22280952D01*
X15061904Y-22090476D01*
X15109523Y-21995238D01*
X15204761Y-21900000D01*
X15347619Y-21852380D01*
X15442857Y-21852380D01*
X15585714Y-21900000D01*
X15633333Y-21947619D01*
X16490476Y-21852380D02*
X16300000Y-21852380D01*
X16204761Y-21900000D01*
X16157142Y-21947619D01*
X16061904Y-22090476D01*
X16014285Y-22280952D01*
X16014285Y-22661904D01*
X16061904Y-22757142D01*
X16109523Y-22804761D01*
X16204761Y-22852380D01*
X16395238Y-22852380D01*
X16490476Y-22804761D01*
X16538095Y-22757142D01*
X16585714Y-22661904D01*
X16585714Y-22423809D01*
X16538095Y-22328571D01*
X16490476Y-22280952D01*
X16395238Y-22233333D01*
X16204761Y-22233333D01*
X16109523Y-22280952D01*
X16061904Y-22328571D01*
X16014285Y-22423809D01*
X18157142Y-16966666D02*
X18204761Y-17014285D01*
X18252380Y-17157142D01*
X18252380Y-17252380D01*
X18204761Y-17395238D01*
X18109523Y-17490476D01*
X18014285Y-17538095D01*
X17823809Y-17585714D01*
X17680952Y-17585714D01*
X17490476Y-17538095D01*
X17395238Y-17490476D01*
X17300000Y-17395238D01*
X17252380Y-17252380D01*
X17252380Y-17157142D01*
X17300000Y-17014285D01*
X17347619Y-16966666D01*
X17252380Y-16633333D02*
X17252380Y-15966666D01*
X18252380Y-16395238D01*
X10557142Y-17966666D02*
X10604761Y-18014285D01*
X10652380Y-18157142D01*
X10652380Y-18252380D01*
X10604761Y-18395238D01*
X10509523Y-18490476D01*
X10414285Y-18538095D01*
X10223809Y-18585714D01*
X10080952Y-18585714D01*
X9890476Y-18538095D01*
X9795238Y-18490476D01*
X9700000Y-18395238D01*
X9652380Y-18252380D01*
X9652380Y-18157142D01*
X9700000Y-18014285D01*
X9747619Y-17966666D01*
X10080952Y-17395238D02*
X10033333Y-17490476D01*
X9985714Y-17538095D01*
X9890476Y-17585714D01*
X9842857Y-17585714D01*
X9747619Y-17538095D01*
X9700000Y-17490476D01*
X9652380Y-17395238D01*
X9652380Y-17204761D01*
X9700000Y-17109523D01*
X9747619Y-17061904D01*
X9842857Y-17014285D01*
X9890476Y-17014285D01*
X9985714Y-17061904D01*
X10033333Y-17109523D01*
X10080952Y-17204761D01*
X10080952Y-17395238D01*
X10128571Y-17490476D01*
X10176190Y-17538095D01*
X10271428Y-17585714D01*
X10461904Y-17585714D01*
X10557142Y-17538095D01*
X10604761Y-17490476D01*
X10652380Y-17395238D01*
X10652380Y-17204761D01*
X10604761Y-17109523D01*
X10557142Y-17061904D01*
X10461904Y-17014285D01*
X10271428Y-17014285D01*
X10176190Y-17061904D01*
X10128571Y-17109523D01*
X10080952Y-17204761D01*
X10557142Y-14566666D02*
X10604761Y-14614285D01*
X10652380Y-14757142D01*
X10652380Y-14852380D01*
X10604761Y-14995238D01*
X10509523Y-15090476D01*
X10414285Y-15138095D01*
X10223809Y-15185714D01*
X10080952Y-15185714D01*
X9890476Y-15138095D01*
X9795238Y-15090476D01*
X9700000Y-14995238D01*
X9652380Y-14852380D01*
X9652380Y-14757142D01*
X9700000Y-14614285D01*
X9747619Y-14566666D01*
X10652380Y-14090476D02*
X10652380Y-13900000D01*
X10604761Y-13804761D01*
X10557142Y-13757142D01*
X10414285Y-13661904D01*
X10223809Y-13614285D01*
X9842857Y-13614285D01*
X9747619Y-13661904D01*
X9700000Y-13709523D01*
X9652380Y-13804761D01*
X9652380Y-13995238D01*
X9700000Y-14090476D01*
X9747619Y-14138095D01*
X9842857Y-14185714D01*
X10080952Y-14185714D01*
X10176190Y-14138095D01*
X10223809Y-14090476D01*
X10271428Y-13995238D01*
X10271428Y-13804761D01*
X10223809Y-13709523D01*
X10176190Y-13661904D01*
X10080952Y-13614285D01*
X7252380Y-36433333D02*
X7966666Y-36433333D01*
X8109523Y-36480952D01*
X8204761Y-36576190D01*
X8252380Y-36719047D01*
X8252380Y-36814285D01*
X8252380Y-35957142D02*
X7252380Y-35957142D01*
X7252380Y-35576190D01*
X7300000Y-35480952D01*
X7347619Y-35433333D01*
X7442857Y-35385714D01*
X7585714Y-35385714D01*
X7680952Y-35433333D01*
X7728571Y-35480952D01*
X7776190Y-35576190D01*
X7776190Y-35957142D01*
X8252380Y-34433333D02*
X8252380Y-35004761D01*
X8252380Y-34719047D02*
X7252380Y-34719047D01*
X7395238Y-34814285D01*
X7490476Y-34909523D01*
X7538095Y-35004761D01*
X-2966666Y-4852380D02*
X-3442857Y-4852380D01*
X-3442857Y-3852380D01*
X-2109523Y-4852380D02*
X-2680952Y-4852380D01*
X-2395238Y-4852380D02*
X-2395238Y-3852380D01*
X-2490476Y-3995238D01*
X-2585714Y-4090476D01*
X-2680952Y-4138095D01*
X13343236Y-32245061D02*
X13009903Y-31768871D01*
X12771807Y-32245061D02*
X12771807Y-31245061D01*
X13152760Y-31245061D01*
X13247998Y-31292681D01*
X13295617Y-31340300D01*
X13343236Y-31435538D01*
X13343236Y-31578395D01*
X13295617Y-31673633D01*
X13247998Y-31721252D01*
X13152760Y-31768871D01*
X12771807Y-31768871D01*
X13676569Y-31245061D02*
X14295617Y-31245061D01*
X13962283Y-31626014D01*
X14105141Y-31626014D01*
X14200379Y-31673633D01*
X14247998Y-31721252D01*
X14295617Y-31816490D01*
X14295617Y-32054585D01*
X14247998Y-32149823D01*
X14200379Y-32197442D01*
X14105141Y-32245061D01*
X13819426Y-32245061D01*
X13724188Y-32197442D01*
X13676569Y-32149823D01*
X18233333Y-32252380D02*
X17900000Y-31776190D01*
X17661904Y-32252380D02*
X17661904Y-31252380D01*
X18042857Y-31252380D01*
X18138095Y-31300000D01*
X18185714Y-31347619D01*
X18233333Y-31442857D01*
X18233333Y-31585714D01*
X18185714Y-31680952D01*
X18138095Y-31728571D01*
X18042857Y-31776190D01*
X17661904Y-31776190D01*
X19090476Y-31585714D02*
X19090476Y-32252380D01*
X18852380Y-31204761D02*
X18614285Y-31919047D01*
X19233333Y-31919047D01*
X15633333Y-26852380D02*
X15300000Y-26376190D01*
X15061904Y-26852380D02*
X15061904Y-25852380D01*
X15442857Y-25852380D01*
X15538095Y-25900000D01*
X15585714Y-25947619D01*
X15633333Y-26042857D01*
X15633333Y-26185714D01*
X15585714Y-26280952D01*
X15538095Y-26328571D01*
X15442857Y-26376190D01*
X15061904Y-26376190D01*
X16538095Y-25852380D02*
X16061904Y-25852380D01*
X16014285Y-26328571D01*
X16061904Y-26280952D01*
X16157142Y-26233333D01*
X16395238Y-26233333D01*
X16490476Y-26280952D01*
X16538095Y-26328571D01*
X16585714Y-26423809D01*
X16585714Y-26661904D01*
X16538095Y-26757142D01*
X16490476Y-26804761D01*
X16395238Y-26852380D01*
X16157142Y-26852380D01*
X16061904Y-26804761D01*
X16014285Y-26757142D01*
X18452380Y-36966666D02*
X17976190Y-37300000D01*
X18452380Y-37538095D02*
X17452380Y-37538095D01*
X17452380Y-37157142D01*
X17500000Y-37061904D01*
X17547619Y-37014285D01*
X17642857Y-36966666D01*
X17785714Y-36966666D01*
X17880952Y-37014285D01*
X17928571Y-37061904D01*
X17976190Y-37157142D01*
X17976190Y-37538095D01*
X17880952Y-36395238D02*
X17833333Y-36490476D01*
X17785714Y-36538095D01*
X17690476Y-36585714D01*
X17642857Y-36585714D01*
X17547619Y-36538095D01*
X17500000Y-36490476D01*
X17452380Y-36395238D01*
X17452380Y-36204761D01*
X17500000Y-36109523D01*
X17547619Y-36061904D01*
X17642857Y-36014285D01*
X17690476Y-36014285D01*
X17785714Y-36061904D01*
X17833333Y-36109523D01*
X17880952Y-36204761D01*
X17880952Y-36395238D01*
X17928571Y-36490476D01*
X17976190Y-36538095D01*
X18071428Y-36585714D01*
X18261904Y-36585714D01*
X18357142Y-36538095D01*
X18404761Y-36490476D01*
X18452380Y-36395238D01*
X18452380Y-36204761D01*
X18404761Y-36109523D01*
X18357142Y-36061904D01*
X18261904Y-36014285D01*
X18071428Y-36014285D01*
X17976190Y-36061904D01*
X17928571Y-36109523D01*
X17880952Y-36204761D01*
X16252380Y-36966666D02*
X15776190Y-37300000D01*
X16252380Y-37538095D02*
X15252380Y-37538095D01*
X15252380Y-37157142D01*
X15300000Y-37061904D01*
X15347619Y-37014285D01*
X15442857Y-36966666D01*
X15585714Y-36966666D01*
X15680952Y-37014285D01*
X15728571Y-37061904D01*
X15776190Y-37157142D01*
X15776190Y-37538095D01*
X16252380Y-36490476D02*
X16252380Y-36300000D01*
X16204761Y-36204761D01*
X16157142Y-36157142D01*
X16014285Y-36061904D01*
X15823809Y-36014285D01*
X15442857Y-36014285D01*
X15347619Y-36061904D01*
X15300000Y-36109523D01*
X15252380Y-36204761D01*
X15252380Y-36395238D01*
X15300000Y-36490476D01*
X15347619Y-36538095D01*
X15442857Y-36585714D01*
X15680952Y-36585714D01*
X15776190Y-36538095D01*
X15823809Y-36490476D01*
X15871428Y-36395238D01*
X15871428Y-36204761D01*
X15823809Y-36109523D01*
X15776190Y-36061904D01*
X15680952Y-36014285D01*
X13052380Y-38485714D02*
X13052380Y-37914285D01*
X14052380Y-38200000D02*
X13052380Y-38200000D01*
X14052380Y-37580952D02*
X13052380Y-37580952D01*
X13528571Y-37580952D02*
X13528571Y-37009523D01*
X14052380Y-37009523D02*
X13052380Y-37009523D01*
X14052380Y-36009523D02*
X14052380Y-36580952D01*
X14052380Y-36295238D02*
X13052380Y-36295238D01*
X13195238Y-36390476D01*
X13290476Y-36485714D01*
X13338095Y-36580952D01*
X24066666Y-18404761D02*
X24209523Y-18452380D01*
X24447619Y-18452380D01*
X24542857Y-18404761D01*
X24590476Y-18357142D01*
X24638095Y-18261904D01*
X24638095Y-18166666D01*
X24590476Y-18071428D01*
X24542857Y-18023809D01*
X24447619Y-17976190D01*
X24257142Y-17928571D01*
X24161904Y-17880952D01*
X24114285Y-17833333D01*
X24066666Y-17738095D01*
X24066666Y-17642857D01*
X24114285Y-17547619D01*
X24161904Y-17500000D01*
X24257142Y-17452380D01*
X24495238Y-17452380D01*
X24638095Y-17500000D01*
X24971428Y-17452380D02*
X25209523Y-18452380D01*
X25400000Y-17738095D01*
X25590476Y-18452380D01*
X25828571Y-17452380D01*
X26114285Y-17452380D02*
X26733333Y-17452380D01*
X26400000Y-17833333D01*
X26542857Y-17833333D01*
X26638095Y-17880952D01*
X26685714Y-17928571D01*
X26733333Y-18023809D01*
X26733333Y-18261904D01*
X26685714Y-18357142D01*
X26638095Y-18404761D01*
X26542857Y-18452380D01*
X26257142Y-18452380D01*
X26161904Y-18404761D01*
X26114285Y-18357142D01*
X31752380Y17457142D02*
X31276190Y17123809D01*
X31752380Y16885714D02*
X30752380Y16885714D01*
X30752380Y17266666D01*
X30800000Y17361904D01*
X30847619Y17409523D01*
X30942857Y17457142D01*
X31085714Y17457142D01*
X31180952Y17409523D01*
X31228571Y17361904D01*
X31276190Y17266666D01*
X31276190Y16885714D01*
X30752380Y17790476D02*
X30752380Y18457142D01*
X31752380Y18028571D01*
X30752380Y18742857D02*
X30752380Y19361904D01*
X31133333Y19028571D01*
X31133333Y19171428D01*
X31180952Y19266666D01*
X31228571Y19314285D01*
X31323809Y19361904D01*
X31561904Y19361904D01*
X31657142Y19314285D01*
X31704761Y19266666D01*
X31752380Y19171428D01*
X31752380Y18885714D01*
X31704761Y18790476D01*
X31657142Y18742857D01*
X28157142Y26647619D02*
X27823809Y27123809D01*
X27585714Y26647619D02*
X27585714Y27647619D01*
X27966666Y27647619D01*
X28061904Y27600000D01*
X28109523Y27552380D01*
X28157142Y27457142D01*
X28157142Y27314285D01*
X28109523Y27219047D01*
X28061904Y27171428D01*
X27966666Y27123809D01*
X27585714Y27123809D01*
X28490476Y27647619D02*
X29157142Y27647619D01*
X28728571Y26647619D01*
X29490476Y27552380D02*
X29538095Y27600000D01*
X29633333Y27647619D01*
X29871428Y27647619D01*
X29966666Y27600000D01*
X30014285Y27552380D01*
X30061904Y27457142D01*
X30061904Y27361904D01*
X30014285Y27219047D01*
X29442857Y26647619D01*
X30061904Y26647619D01*
X26852380Y17457142D02*
X26376190Y17123809D01*
X26852380Y16885714D02*
X25852380Y16885714D01*
X25852380Y17266666D01*
X25900000Y17361904D01*
X25947619Y17409523D01*
X26042857Y17457142D01*
X26185714Y17457142D01*
X26280952Y17409523D01*
X26328571Y17361904D01*
X26376190Y17266666D01*
X26376190Y16885714D01*
X25852380Y17790476D02*
X25852380Y18457142D01*
X26852380Y18028571D01*
X26852380Y19361904D02*
X26852380Y18790476D01*
X26852380Y19076190D02*
X25852380Y19076190D01*
X25995238Y18980952D01*
X26090476Y18885714D01*
X26138095Y18790476D01*
X23257142Y26647619D02*
X22923809Y27123809D01*
X22685714Y26647619D02*
X22685714Y27647619D01*
X23066666Y27647619D01*
X23161904Y27600000D01*
X23209523Y27552380D01*
X23257142Y27457142D01*
X23257142Y27314285D01*
X23209523Y27219047D01*
X23161904Y27171428D01*
X23066666Y27123809D01*
X22685714Y27123809D01*
X23590476Y27647619D02*
X24257142Y27647619D01*
X23828571Y26647619D01*
X24828571Y27647619D02*
X24923809Y27647619D01*
X25019047Y27600000D01*
X25066666Y27552380D01*
X25114285Y27457142D01*
X25161904Y27266666D01*
X25161904Y27028571D01*
X25114285Y26838095D01*
X25066666Y26742857D01*
X25019047Y26695238D01*
X24923809Y26647619D01*
X24828571Y26647619D01*
X24733333Y26695238D01*
X24685714Y26742857D01*
X24638095Y26838095D01*
X24590476Y27028571D01*
X24590476Y27266666D01*
X24638095Y27457142D01*
X24685714Y27552380D01*
X24733333Y27600000D01*
X24828571Y27647619D01*
X36952380Y17457142D02*
X36476190Y17123809D01*
X36952380Y16885714D02*
X35952380Y16885714D01*
X35952380Y17266666D01*
X36000000Y17361904D01*
X36047619Y17409523D01*
X36142857Y17457142D01*
X36285714Y17457142D01*
X36380952Y17409523D01*
X36428571Y17361904D01*
X36476190Y17266666D01*
X36476190Y16885714D01*
X35952380Y18314285D02*
X35952380Y18123809D01*
X36000000Y18028571D01*
X36047619Y17980952D01*
X36190476Y17885714D01*
X36380952Y17838095D01*
X36761904Y17838095D01*
X36857142Y17885714D01*
X36904761Y17933333D01*
X36952380Y18028571D01*
X36952380Y18219047D01*
X36904761Y18314285D01*
X36857142Y18361904D01*
X36761904Y18409523D01*
X36523809Y18409523D01*
X36428571Y18361904D01*
X36380952Y18314285D01*
X36333333Y18219047D01*
X36333333Y18028571D01*
X36380952Y17933333D01*
X36428571Y17885714D01*
X36523809Y17838095D01*
X36952380Y18885714D02*
X36952380Y19076190D01*
X36904761Y19171428D01*
X36857142Y19219047D01*
X36714285Y19314285D01*
X36523809Y19361904D01*
X36142857Y19361904D01*
X36047619Y19314285D01*
X36000000Y19266666D01*
X35952380Y19171428D01*
X35952380Y18980952D01*
X36000000Y18885714D01*
X36047619Y18838095D01*
X36142857Y18790476D01*
X36380952Y18790476D01*
X36476190Y18838095D01*
X36523809Y18885714D01*
X36571428Y18980952D01*
X36571428Y19171428D01*
X36523809Y19266666D01*
X36476190Y19314285D01*
X36380952Y19361904D01*
X18481062Y20560019D02*
X18147729Y21036209D01*
X17909634Y20560019D02*
X17909634Y21560019D01*
X18290586Y21560019D01*
X18385824Y21512400D01*
X18433443Y21464780D01*
X18481062Y21369542D01*
X18481062Y21226685D01*
X18433443Y21131447D01*
X18385824Y21083828D01*
X18290586Y21036209D01*
X17909634Y21036209D01*
X19338205Y21560019D02*
X19147729Y21560019D01*
X19052491Y21512400D01*
X19004872Y21464780D01*
X18909634Y21321923D01*
X18862015Y21131447D01*
X18862015Y20750495D01*
X18909634Y20655257D01*
X18957253Y20607638D01*
X19052491Y20560019D01*
X19242967Y20560019D01*
X19338205Y20607638D01*
X19385824Y20655257D01*
X19433443Y20750495D01*
X19433443Y20988590D01*
X19385824Y21083828D01*
X19338205Y21131447D01*
X19242967Y21179066D01*
X19052491Y21179066D01*
X18957253Y21131447D01*
X18909634Y21083828D01*
X18862015Y20988590D01*
X20004872Y21131447D02*
X19909634Y21179066D01*
X19862015Y21226685D01*
X19814396Y21321923D01*
X19814396Y21369542D01*
X19862015Y21464780D01*
X19909634Y21512400D01*
X20004872Y21560019D01*
X20195348Y21560019D01*
X20290586Y21512400D01*
X20338205Y21464780D01*
X20385824Y21369542D01*
X20385824Y21321923D01*
X20338205Y21226685D01*
X20290586Y21179066D01*
X20195348Y21131447D01*
X20004872Y21131447D01*
X19909634Y21083828D01*
X19862015Y21036209D01*
X19814396Y20940971D01*
X19814396Y20750495D01*
X19862015Y20655257D01*
X19909634Y20607638D01*
X20004872Y20560019D01*
X20195348Y20560019D01*
X20290586Y20607638D01*
X20338205Y20655257D01*
X20385824Y20750495D01*
X20385824Y20940971D01*
X20338205Y21036209D01*
X20290586Y21083828D01*
X20195348Y21131447D01*
X32452380Y-26342857D02*
X31976190Y-26676190D01*
X32452380Y-26914285D02*
X31452380Y-26914285D01*
X31452380Y-26533333D01*
X31500000Y-26438095D01*
X31547619Y-26390476D01*
X31642857Y-26342857D01*
X31785714Y-26342857D01*
X31880952Y-26390476D01*
X31928571Y-26438095D01*
X31976190Y-26533333D01*
X31976190Y-26914285D01*
X31785714Y-25485714D02*
X32452380Y-25485714D01*
X31404761Y-25723809D02*
X32119047Y-25961904D01*
X32119047Y-25342857D01*
X31452380Y-24485714D02*
X31452380Y-24961904D01*
X31928571Y-25009523D01*
X31880952Y-24961904D01*
X31833333Y-24866666D01*
X31833333Y-24628571D01*
X31880952Y-24533333D01*
X31928571Y-24485714D01*
X32023809Y-24438095D01*
X32261904Y-24438095D01*
X32357142Y-24485714D01*
X32404761Y-24533333D01*
X32452380Y-24628571D01*
X32452380Y-24866666D01*
X32404761Y-24961904D01*
X32357142Y-25009523D01*
X32452380Y-22321777D02*
X31976190Y-22655110D01*
X32452380Y-22893205D02*
X31452380Y-22893205D01*
X31452380Y-22512253D01*
X31500000Y-22417015D01*
X31547619Y-22369396D01*
X31642857Y-22321777D01*
X31785714Y-22321777D01*
X31880952Y-22369396D01*
X31928571Y-22417015D01*
X31976190Y-22512253D01*
X31976190Y-22893205D01*
X31785714Y-21464634D02*
X32452380Y-21464634D01*
X31404761Y-21702729D02*
X32119047Y-21940824D01*
X32119047Y-21321777D01*
X31785714Y-20512253D02*
X32452380Y-20512253D01*
X31404761Y-20750348D02*
X32119047Y-20988443D01*
X32119047Y-20369396D01*
X31846539Y24385971D02*
X31798920Y24290733D01*
X31703681Y24195495D01*
X31560824Y24052638D01*
X31513205Y23957400D01*
X31513205Y23862161D01*
X31751300Y23909780D02*
X31703681Y23814542D01*
X31608443Y23719304D01*
X31417967Y23671685D01*
X31084634Y23671685D01*
X30894158Y23719304D01*
X30798920Y23814542D01*
X30751300Y23909780D01*
X30751300Y24100257D01*
X30798920Y24195495D01*
X30894158Y24290733D01*
X31084634Y24338352D01*
X31417967Y24338352D01*
X31608443Y24290733D01*
X31703681Y24195495D01*
X31751300Y24100257D01*
X31751300Y23909780D01*
X31751300Y25290733D02*
X31751300Y24719304D01*
X31751300Y25005019D02*
X30751300Y25005019D01*
X30894158Y24909780D01*
X30989396Y24814542D01*
X31037015Y24719304D01*
X30751300Y25624066D02*
X30751300Y26243114D01*
X31132253Y25909780D01*
X31132253Y26052638D01*
X31179872Y26147876D01*
X31227491Y26195495D01*
X31322729Y26243114D01*
X31560824Y26243114D01*
X31656062Y26195495D01*
X31703681Y26147876D01*
X31751300Y26052638D01*
X31751300Y25766923D01*
X31703681Y25671685D01*
X31656062Y25624066D01*
X22047619Y24428571D02*
X22000000Y24333333D01*
X21904761Y24238095D01*
X21761904Y24095238D01*
X21714285Y24000000D01*
X21714285Y23904761D01*
X21952380Y23952380D02*
X21904761Y23857142D01*
X21809523Y23761904D01*
X21619047Y23714285D01*
X21285714Y23714285D01*
X21095238Y23761904D01*
X21000000Y23857142D01*
X20952380Y23952380D01*
X20952380Y24142857D01*
X21000000Y24238095D01*
X21095238Y24333333D01*
X21285714Y24380952D01*
X21619047Y24380952D01*
X21809523Y24333333D01*
X21904761Y24238095D01*
X21952380Y24142857D01*
X21952380Y23952380D01*
X21952380Y25333333D02*
X21952380Y24761904D01*
X21952380Y25047619D02*
X20952380Y25047619D01*
X21095238Y24952380D01*
X21190476Y24857142D01*
X21238095Y24761904D01*
X21047619Y25714285D02*
X21000000Y25761904D01*
X20952380Y25857142D01*
X20952380Y26095238D01*
X21000000Y26190476D01*
X21047619Y26238095D01*
X21142857Y26285714D01*
X21238095Y26285714D01*
X21380952Y26238095D01*
X21952380Y25666666D01*
X21952380Y26285714D01*
X34276539Y8515971D02*
X34228920Y8420733D01*
X34133681Y8325495D01*
X33990824Y8182638D01*
X33943205Y8087400D01*
X33943205Y7992161D01*
X34181300Y8039780D02*
X34133681Y7944542D01*
X34038443Y7849304D01*
X33847967Y7801685D01*
X33514634Y7801685D01*
X33324158Y7849304D01*
X33228920Y7944542D01*
X33181300Y8039780D01*
X33181300Y8230257D01*
X33228920Y8325495D01*
X33324158Y8420733D01*
X33514634Y8468352D01*
X33847967Y8468352D01*
X34038443Y8420733D01*
X34133681Y8325495D01*
X34181300Y8230257D01*
X34181300Y8039780D01*
X34181300Y9420733D02*
X34181300Y8849304D01*
X34181300Y9135019D02*
X33181300Y9135019D01*
X33324158Y9039780D01*
X33419396Y8944542D01*
X33467015Y8849304D01*
X34181300Y10373114D02*
X34181300Y9801685D01*
X34181300Y10087400D02*
X33181300Y10087400D01*
X33324158Y9992161D01*
X33419396Y9896923D01*
X33467015Y9801685D01*
X18677491Y13009780D02*
X18582253Y13057400D01*
X18487015Y13152638D01*
X18344158Y13295495D01*
X18248920Y13343114D01*
X18153681Y13343114D01*
X18201300Y13105019D02*
X18106062Y13152638D01*
X18010824Y13247876D01*
X17963205Y13438352D01*
X17963205Y13771685D01*
X18010824Y13962161D01*
X18106062Y14057400D01*
X18201300Y14105019D01*
X18391777Y14105019D01*
X18487015Y14057400D01*
X18582253Y13962161D01*
X18629872Y13771685D01*
X18629872Y13438352D01*
X18582253Y13247876D01*
X18487015Y13152638D01*
X18391777Y13105019D01*
X18201300Y13105019D01*
X19582253Y13105019D02*
X19010824Y13105019D01*
X19296539Y13105019D02*
X19296539Y14105019D01*
X19201300Y13962161D01*
X19106062Y13866923D01*
X19010824Y13819304D01*
X20201300Y14105019D02*
X20296539Y14105019D01*
X20391777Y14057400D01*
X20439396Y14009780D01*
X20487015Y13914542D01*
X20534634Y13724066D01*
X20534634Y13485971D01*
X20487015Y13295495D01*
X20439396Y13200257D01*
X20391777Y13152638D01*
X20296539Y13105019D01*
X20201300Y13105019D01*
X20106062Y13152638D01*
X20058443Y13200257D01*
X20010824Y13295495D01*
X19963205Y13485971D01*
X19963205Y13724066D01*
X20010824Y13914542D01*
X20058443Y14009780D01*
X20106062Y14057400D01*
X20201300Y14105019D01*
X-16233333Y-30152380D02*
X-16233333Y-30866666D01*
X-16280952Y-31009523D01*
X-16376190Y-31104761D01*
X-16519047Y-31152380D01*
X-16614285Y-31152380D01*
X-15614285Y-30580952D02*
X-15709523Y-30533333D01*
X-15757142Y-30485714D01*
X-15804761Y-30390476D01*
X-15804761Y-30342857D01*
X-15757142Y-30247619D01*
X-15709523Y-30200000D01*
X-15614285Y-30152380D01*
X-15423809Y-30152380D01*
X-15328571Y-30200000D01*
X-15280952Y-30247619D01*
X-15233333Y-30342857D01*
X-15233333Y-30390476D01*
X-15280952Y-30485714D01*
X-15328571Y-30533333D01*
X-15423809Y-30580952D01*
X-15614285Y-30580952D01*
X-15709523Y-30628571D01*
X-15757142Y-30676190D01*
X-15804761Y-30771428D01*
X-15804761Y-30961904D01*
X-15757142Y-31057142D01*
X-15709523Y-31104761D01*
X-15614285Y-31152380D01*
X-15423809Y-31152380D01*
X-15328571Y-31104761D01*
X-15280952Y-31057142D01*
X-15233333Y-30961904D01*
X-15233333Y-30771428D01*
X-15280952Y-30676190D01*
X-15328571Y-30628571D01*
X-15423809Y-30580952D01*
X-16254413Y-23352380D02*
X-16254413Y-24066666D01*
X-16302032Y-24209523D01*
X-16397270Y-24304761D01*
X-16540127Y-24352380D01*
X-16635365Y-24352380D01*
X-15349651Y-23352380D02*
X-15540127Y-23352380D01*
X-15635365Y-23400000D01*
X-15682984Y-23447619D01*
X-15778222Y-23590476D01*
X-15825841Y-23780952D01*
X-15825841Y-24161904D01*
X-15778222Y-24257142D01*
X-15730603Y-24304761D01*
X-15635365Y-24352380D01*
X-15444889Y-24352380D01*
X-15349651Y-24304761D01*
X-15302032Y-24257142D01*
X-15254413Y-24161904D01*
X-15254413Y-23923809D01*
X-15302032Y-23828571D01*
X-15349651Y-23780952D01*
X-15444889Y-23733333D01*
X-15635365Y-23733333D01*
X-15730603Y-23780952D01*
X-15778222Y-23828571D01*
X-15825841Y-23923809D01*
X-16433333Y-14552380D02*
X-16433333Y-15266666D01*
X-16480952Y-15409523D01*
X-16576190Y-15504761D01*
X-16719047Y-15552380D01*
X-16814285Y-15552380D01*
X-15528571Y-14885714D02*
X-15528571Y-15552380D01*
X-15766666Y-14504761D02*
X-16004761Y-15219047D01*
X-15385714Y-15219047D01*
X21528571Y-29685714D02*
X21576190Y-29542857D01*
X21623809Y-29495238D01*
X21719047Y-29447619D01*
X21861904Y-29447619D01*
X21957142Y-29495238D01*
X22004761Y-29542857D01*
X22052380Y-29638095D01*
X22052380Y-30019047D01*
X21052380Y-30019047D01*
X21052380Y-29685714D01*
X21100000Y-29590476D01*
X21147619Y-29542857D01*
X21242857Y-29495238D01*
X21338095Y-29495238D01*
X21433333Y-29542857D01*
X21480952Y-29590476D01*
X21528571Y-29685714D01*
X21528571Y-30019047D01*
X21052380Y-29161904D02*
X21052380Y-28590476D01*
X22052380Y-28876190D02*
X21052380Y-28876190D01*
X22052380Y-27733333D02*
X22052380Y-28304761D01*
X22052380Y-28019047D02*
X21052380Y-28019047D01*
X21195238Y-28114285D01*
X21290476Y-28209523D01*
X21338095Y-28304761D01*
X-17166666Y37942857D02*
X-17214285Y37895238D01*
X-17357142Y37847619D01*
X-17452380Y37847619D01*
X-17595238Y37895238D01*
X-17690476Y37990476D01*
X-17738095Y38085714D01*
X-17785714Y38276190D01*
X-17785714Y38419047D01*
X-17738095Y38609523D01*
X-17690476Y38704761D01*
X-17595238Y38800000D01*
X-17452380Y38847619D01*
X-17357142Y38847619D01*
X-17214285Y38800000D01*
X-17166666Y38752380D01*
X-16214285Y37847619D02*
X-16785714Y37847619D01*
X-16500000Y37847619D02*
X-16500000Y38847619D01*
X-16595238Y38704761D01*
X-16690476Y38609523D01*
X-16785714Y38561904D01*
X-17166666Y39742857D02*
X-17214285Y39695238D01*
X-17357142Y39647619D01*
X-17452380Y39647619D01*
X-17595238Y39695238D01*
X-17690476Y39790476D01*
X-17738095Y39885714D01*
X-17785714Y40076190D01*
X-17785714Y40219047D01*
X-17738095Y40409523D01*
X-17690476Y40504761D01*
X-17595238Y40600000D01*
X-17452380Y40647619D01*
X-17357142Y40647619D01*
X-17214285Y40600000D01*
X-17166666Y40552380D01*
X-16785714Y40552380D02*
X-16738095Y40600000D01*
X-16642857Y40647619D01*
X-16404761Y40647619D01*
X-16309523Y40600000D01*
X-16261904Y40552380D01*
X-16214285Y40457142D01*
X-16214285Y40361904D01*
X-16261904Y40219047D01*
X-16833333Y39647619D01*
X-16214285Y39647619D01*
X15357142Y5257142D02*
X15404761Y5209523D01*
X15452380Y5066666D01*
X15452380Y4971428D01*
X15404761Y4828571D01*
X15309523Y4733333D01*
X15214285Y4685714D01*
X15023809Y4638095D01*
X14880952Y4638095D01*
X14690476Y4685714D01*
X14595238Y4733333D01*
X14500000Y4828571D01*
X14452380Y4971428D01*
X14452380Y5066666D01*
X14500000Y5209523D01*
X14547619Y5257142D01*
X15452380Y6209523D02*
X15452380Y5638095D01*
X15452380Y5923809D02*
X14452380Y5923809D01*
X14595238Y5828571D01*
X14690476Y5733333D01*
X14738095Y5638095D01*
X14452380Y6828571D02*
X14452380Y6923809D01*
X14500000Y7019047D01*
X14547619Y7066666D01*
X14642857Y7114285D01*
X14833333Y7161904D01*
X15071428Y7161904D01*
X15261904Y7114285D01*
X15357142Y7066666D01*
X15404761Y7019047D01*
X15452380Y6923809D01*
X15452380Y6828571D01*
X15404761Y6733333D01*
X15357142Y6685714D01*
X15261904Y6638095D01*
X15071428Y6590476D01*
X14833333Y6590476D01*
X14642857Y6638095D01*
X14547619Y6685714D01*
X14500000Y6733333D01*
X14452380Y6828571D01*
X14772132Y646419D02*
X14819751Y598800D01*
X14867370Y455943D01*
X14867370Y360705D01*
X14819751Y217848D01*
X14724513Y122610D01*
X14629275Y74991D01*
X14438799Y27372D01*
X14295942Y27372D01*
X14105466Y74991D01*
X14010228Y122610D01*
X13914990Y217848D01*
X13867370Y360705D01*
X13867370Y455943D01*
X13914990Y598800D01*
X13962609Y646419D01*
X14867370Y1598800D02*
X14867370Y1027372D01*
X14867370Y1313086D02*
X13867370Y1313086D01*
X14010228Y1217848D01*
X14105466Y1122610D01*
X14153085Y1027372D01*
X14867370Y2551181D02*
X14867370Y1979753D01*
X14867370Y2265467D02*
X13867370Y2265467D01*
X14010228Y2170229D01*
X14105466Y2074991D01*
X14153085Y1979753D01*
X10525472Y-4642857D02*
X10573091Y-4690476D01*
X10620710Y-4833333D01*
X10620710Y-4928571D01*
X10573091Y-5071428D01*
X10477853Y-5166666D01*
X10382615Y-5214285D01*
X10192139Y-5261904D01*
X10049282Y-5261904D01*
X9858806Y-5214285D01*
X9763568Y-5166666D01*
X9668330Y-5071428D01*
X9620710Y-4928571D01*
X9620710Y-4833333D01*
X9668330Y-4690476D01*
X9715949Y-4642857D01*
X10620710Y-3690476D02*
X10620710Y-4261904D01*
X10620710Y-3976190D02*
X9620710Y-3976190D01*
X9763568Y-4071428D01*
X9858806Y-4166666D01*
X9906425Y-4261904D01*
X9715949Y-3309523D02*
X9668330Y-3261904D01*
X9620710Y-3166666D01*
X9620710Y-2928571D01*
X9668330Y-2833333D01*
X9715949Y-2785714D01*
X9811187Y-2738095D01*
X9906425Y-2738095D01*
X10049282Y-2785714D01*
X10620710Y-3357142D01*
X10620710Y-2738095D01*
X9757142Y8542857D02*
X9709523Y8495238D01*
X9566666Y8447619D01*
X9471428Y8447619D01*
X9328571Y8495238D01*
X9233333Y8590476D01*
X9185714Y8685714D01*
X9138095Y8876190D01*
X9138095Y9019047D01*
X9185714Y9209523D01*
X9233333Y9304761D01*
X9328571Y9400000D01*
X9471428Y9447619D01*
X9566666Y9447619D01*
X9709523Y9400000D01*
X9757142Y9352380D01*
X10709523Y8447619D02*
X10138095Y8447619D01*
X10423809Y8447619D02*
X10423809Y9447619D01*
X10328571Y9304761D01*
X10233333Y9209523D01*
X10138095Y9161904D01*
X11042857Y9447619D02*
X11661904Y9447619D01*
X11328571Y9066666D01*
X11471428Y9066666D01*
X11566666Y9019047D01*
X11614285Y8971428D01*
X11661904Y8876190D01*
X11661904Y8638095D01*
X11614285Y8542857D01*
X11566666Y8495238D01*
X11471428Y8447619D01*
X11185714Y8447619D01*
X11090476Y8495238D01*
X11042857Y8542857D01*
X9757142Y10842857D02*
X9709523Y10795238D01*
X9566666Y10747619D01*
X9471428Y10747619D01*
X9328571Y10795238D01*
X9233333Y10890476D01*
X9185714Y10985714D01*
X9138095Y11176190D01*
X9138095Y11319047D01*
X9185714Y11509523D01*
X9233333Y11604761D01*
X9328571Y11700000D01*
X9471428Y11747619D01*
X9566666Y11747619D01*
X9709523Y11700000D01*
X9757142Y11652380D01*
X10709523Y10747619D02*
X10138095Y10747619D01*
X10423809Y10747619D02*
X10423809Y11747619D01*
X10328571Y11604761D01*
X10233333Y11509523D01*
X10138095Y11461904D01*
X11566666Y11414285D02*
X11566666Y10747619D01*
X11328571Y11795238D02*
X11090476Y11080952D01*
X11709523Y11080952D01*
X-17742857Y5557142D02*
X-17695238Y5509523D01*
X-17647619Y5366666D01*
X-17647619Y5271428D01*
X-17695238Y5128571D01*
X-17790476Y5033333D01*
X-17885714Y4985714D01*
X-18076190Y4938095D01*
X-18219047Y4938095D01*
X-18409523Y4985714D01*
X-18504761Y5033333D01*
X-18600000Y5128571D01*
X-18647619Y5271428D01*
X-18647619Y5366666D01*
X-18600000Y5509523D01*
X-18552380Y5557142D01*
X-17647619Y6509523D02*
X-17647619Y5938095D01*
X-17647619Y6223809D02*
X-18647619Y6223809D01*
X-18504761Y6128571D01*
X-18409523Y6033333D01*
X-18361904Y5938095D01*
X-18647619Y7414285D02*
X-18647619Y6938095D01*
X-18171428Y6890476D01*
X-18219047Y6938095D01*
X-18266666Y7033333D01*
X-18266666Y7271428D01*
X-18219047Y7366666D01*
X-18171428Y7414285D01*
X-18076190Y7461904D01*
X-17838095Y7461904D01*
X-17742857Y7414285D01*
X-17695238Y7366666D01*
X-17647619Y7271428D01*
X-17647619Y7033333D01*
X-17695238Y6938095D01*
X-17742857Y6890476D01*
X-24642857Y-57142D02*
X-24690476Y-104761D01*
X-24833333Y-152380D01*
X-24928571Y-152380D01*
X-25071428Y-104761D01*
X-25166666Y-9523D01*
X-25214285Y85714D01*
X-25261904Y276190D01*
X-25261904Y419047D01*
X-25214285Y609523D01*
X-25166666Y704761D01*
X-25071428Y800000D01*
X-24928571Y847619D01*
X-24833333Y847619D01*
X-24690476Y800000D01*
X-24642857Y752380D01*
X-23690476Y-152380D02*
X-24261904Y-152380D01*
X-23976190Y-152380D02*
X-23976190Y847619D01*
X-24071428Y704761D01*
X-24166666Y609523D01*
X-24261904Y561904D01*
X-22833333Y847619D02*
X-23023809Y847619D01*
X-23119047Y800000D01*
X-23166666Y752380D01*
X-23261904Y609523D01*
X-23309523Y419047D01*
X-23309523Y38095D01*
X-23261904Y-57142D01*
X-23214285Y-104761D01*
X-23119047Y-152380D01*
X-22928571Y-152380D01*
X-22833333Y-104761D01*
X-22785714Y-57142D01*
X-22738095Y38095D01*
X-22738095Y276190D01*
X-22785714Y371428D01*
X-22833333Y419047D01*
X-22928571Y466666D01*
X-23119047Y466666D01*
X-23214285Y419047D01*
X-23261904Y371428D01*
X-23309523Y276190D01*
X-36833937Y-9629742D02*
X-36881556Y-9677361D01*
X-37024413Y-9724980D01*
X-37119651Y-9724980D01*
X-37262508Y-9677361D01*
X-37357746Y-9582123D01*
X-37405365Y-9486885D01*
X-37452984Y-9296409D01*
X-37452984Y-9153552D01*
X-37405365Y-8963076D01*
X-37357746Y-8867838D01*
X-37262508Y-8772600D01*
X-37119651Y-8724980D01*
X-37024413Y-8724980D01*
X-36881556Y-8772600D01*
X-36833937Y-8820219D01*
X-35881556Y-9724980D02*
X-36452984Y-9724980D01*
X-36167270Y-9724980D02*
X-36167270Y-8724980D01*
X-36262508Y-8867838D01*
X-36357746Y-8963076D01*
X-36452984Y-9010695D01*
X-35548222Y-8724980D02*
X-34881556Y-8724980D01*
X-35310127Y-9724980D01*
X-37942857Y-6542857D02*
X-37895238Y-6590476D01*
X-37847619Y-6733333D01*
X-37847619Y-6828571D01*
X-37895238Y-6971428D01*
X-37990476Y-7066666D01*
X-38085714Y-7114285D01*
X-38276190Y-7161904D01*
X-38419047Y-7161904D01*
X-38609523Y-7114285D01*
X-38704761Y-7066666D01*
X-38800000Y-6971428D01*
X-38847619Y-6828571D01*
X-38847619Y-6733333D01*
X-38800000Y-6590476D01*
X-38752380Y-6542857D01*
X-37847619Y-5590476D02*
X-37847619Y-6161904D01*
X-37847619Y-5876190D02*
X-38847619Y-5876190D01*
X-38704761Y-5971428D01*
X-38609523Y-6066666D01*
X-38561904Y-6161904D01*
X-38419047Y-5019047D02*
X-38466666Y-5114285D01*
X-38514285Y-5161904D01*
X-38609523Y-5209523D01*
X-38657142Y-5209523D01*
X-38752380Y-5161904D01*
X-38800000Y-5114285D01*
X-38847619Y-5019047D01*
X-38847619Y-4828571D01*
X-38800000Y-4733333D01*
X-38752380Y-4685714D01*
X-38657142Y-4638095D01*
X-38609523Y-4638095D01*
X-38514285Y-4685714D01*
X-38466666Y-4733333D01*
X-38419047Y-4828571D01*
X-38419047Y-5019047D01*
X-38371428Y-5114285D01*
X-38323809Y-5161904D01*
X-38228571Y-5209523D01*
X-38038095Y-5209523D01*
X-37942857Y-5161904D01*
X-37895238Y-5114285D01*
X-37847619Y-5019047D01*
X-37847619Y-4828571D01*
X-37895238Y-4733333D01*
X-37942857Y-4685714D01*
X-38038095Y-4638095D01*
X-38228571Y-4638095D01*
X-38323809Y-4685714D01*
X-38371428Y-4733333D01*
X-38419047Y-4828571D01*
X-33442857Y-4642857D02*
X-33395238Y-4690476D01*
X-33347619Y-4833333D01*
X-33347619Y-4928571D01*
X-33395238Y-5071428D01*
X-33490476Y-5166666D01*
X-33585714Y-5214285D01*
X-33776190Y-5261904D01*
X-33919047Y-5261904D01*
X-34109523Y-5214285D01*
X-34204761Y-5166666D01*
X-34300000Y-5071428D01*
X-34347619Y-4928571D01*
X-34347619Y-4833333D01*
X-34300000Y-4690476D01*
X-34252380Y-4642857D01*
X-33347619Y-3690476D02*
X-33347619Y-4261904D01*
X-33347619Y-3976190D02*
X-34347619Y-3976190D01*
X-34204761Y-4071428D01*
X-34109523Y-4166666D01*
X-34061904Y-4261904D01*
X-33347619Y-3214285D02*
X-33347619Y-3023809D01*
X-33395238Y-2928571D01*
X-33442857Y-2880952D01*
X-33585714Y-2785714D01*
X-33776190Y-2738095D01*
X-34157142Y-2738095D01*
X-34252380Y-2785714D01*
X-34300000Y-2833333D01*
X-34347619Y-2928571D01*
X-34347619Y-3119047D01*
X-34300000Y-3214285D01*
X-34252380Y-3261904D01*
X-34157142Y-3309523D01*
X-33919047Y-3309523D01*
X-33823809Y-3261904D01*
X-33776190Y-3214285D01*
X-33728571Y-3119047D01*
X-33728571Y-2928571D01*
X-33776190Y-2833333D01*
X-33823809Y-2785714D01*
X-33919047Y-2738095D01*
X-26842857Y-10857142D02*
X-26890476Y-10904761D01*
X-27033333Y-10952380D01*
X-27128571Y-10952380D01*
X-27271428Y-10904761D01*
X-27366666Y-10809523D01*
X-27414285Y-10714285D01*
X-27461904Y-10523809D01*
X-27461904Y-10380952D01*
X-27414285Y-10190476D01*
X-27366666Y-10095238D01*
X-27271428Y-10000000D01*
X-27128571Y-9952380D01*
X-27033333Y-9952380D01*
X-26890476Y-10000000D01*
X-26842857Y-10047619D01*
X-26461904Y-10047619D02*
X-26414285Y-10000000D01*
X-26319047Y-9952380D01*
X-26080952Y-9952380D01*
X-25985714Y-10000000D01*
X-25938095Y-10047619D01*
X-25890476Y-10142857D01*
X-25890476Y-10238095D01*
X-25938095Y-10380952D01*
X-26509523Y-10952380D01*
X-25890476Y-10952380D01*
X-25271428Y-9952380D02*
X-25176190Y-9952380D01*
X-25080952Y-10000000D01*
X-25033333Y-10047619D01*
X-24985714Y-10142857D01*
X-24938095Y-10333333D01*
X-24938095Y-10571428D01*
X-24985714Y-10761904D01*
X-25033333Y-10857142D01*
X-25080952Y-10904761D01*
X-25176190Y-10952380D01*
X-25271428Y-10952380D01*
X-25366666Y-10904761D01*
X-25414285Y-10857142D01*
X-25461904Y-10761904D01*
X-25509523Y-10571428D01*
X-25509523Y-10333333D01*
X-25461904Y-10142857D01*
X-25414285Y-10047619D01*
X-25366666Y-10000000D01*
X-25271428Y-9952380D01*
X-31642857Y-7657142D02*
X-31690476Y-7704761D01*
X-31833333Y-7752380D01*
X-31928571Y-7752380D01*
X-32071428Y-7704761D01*
X-32166666Y-7609523D01*
X-32214285Y-7514285D01*
X-32261904Y-7323809D01*
X-32261904Y-7180952D01*
X-32214285Y-6990476D01*
X-32166666Y-6895238D01*
X-32071428Y-6800000D01*
X-31928571Y-6752380D01*
X-31833333Y-6752380D01*
X-31690476Y-6800000D01*
X-31642857Y-6847619D01*
X-31261904Y-6847619D02*
X-31214285Y-6800000D01*
X-31119047Y-6752380D01*
X-30880952Y-6752380D01*
X-30785714Y-6800000D01*
X-30738095Y-6847619D01*
X-30690476Y-6942857D01*
X-30690476Y-7038095D01*
X-30738095Y-7180952D01*
X-31309523Y-7752380D01*
X-30690476Y-7752380D01*
X-29738095Y-7752380D02*
X-30309523Y-7752380D01*
X-30023809Y-7752380D02*
X-30023809Y-6752380D01*
X-30119047Y-6895238D01*
X-30214285Y-6990476D01*
X-30309523Y-7038095D01*
X-31735302Y14612133D02*
X-31800350Y14594704D01*
X-31947878Y14624893D01*
X-32030356Y14672512D01*
X-32130265Y14785180D01*
X-32165124Y14915277D01*
X-32158745Y15021565D01*
X-32104746Y15210332D01*
X-32033317Y15334050D01*
X-31896840Y15475198D01*
X-31807982Y15533867D01*
X-31677884Y15568726D01*
X-31530356Y15538537D01*
X-31447878Y15490918D01*
X-31347969Y15378250D01*
X-31330540Y15313201D01*
X-31000625Y15122725D02*
X-30935576Y15140155D01*
X-30829288Y15133775D01*
X-30623092Y15014728D01*
X-30564423Y14925869D01*
X-30546993Y14860821D01*
X-30553373Y14754532D01*
X-30600992Y14672054D01*
X-30713660Y14572145D01*
X-31494245Y14362988D01*
X-30958134Y14053464D01*
X-30175839Y14646535D02*
X-30110790Y14663965D01*
X-30004502Y14657585D01*
X-29798306Y14538537D01*
X-29739637Y14449679D01*
X-29722207Y14384630D01*
X-29728586Y14278342D01*
X-29776206Y14195863D01*
X-29888873Y14095955D01*
X-30669459Y13886798D01*
X-30133348Y13577274D01*
X-32935302Y12812133D02*
X-33000350Y12794704D01*
X-33147878Y12824893D01*
X-33230356Y12872512D01*
X-33330265Y12985180D01*
X-33365124Y13115277D01*
X-33358745Y13221565D01*
X-33304746Y13410332D01*
X-33233317Y13534050D01*
X-33096840Y13675198D01*
X-33007982Y13733867D01*
X-32877884Y13768726D01*
X-32730356Y13738537D01*
X-32647878Y13690918D01*
X-32547969Y13578250D01*
X-32530540Y13513201D01*
X-32200625Y13322725D02*
X-32135576Y13340155D01*
X-32029288Y13333775D01*
X-31823092Y13214728D01*
X-31764423Y13125869D01*
X-31746993Y13060821D01*
X-31753373Y12954532D01*
X-31800992Y12872054D01*
X-31913660Y12772145D01*
X-32694245Y12562988D01*
X-32158134Y12253464D01*
X-31369459Y12952823D02*
X-30833348Y12643299D01*
X-31312500Y12480051D01*
X-31188782Y12408623D01*
X-31130113Y12319764D01*
X-31112683Y12254716D01*
X-31119063Y12148427D01*
X-31238110Y11942231D01*
X-31326969Y11883562D01*
X-31392017Y11866132D01*
X-31498306Y11872512D01*
X-31745741Y12015369D01*
X-31804411Y12104227D01*
X-31821840Y12169276D01*
X-15138095Y-7552380D02*
X-15138095Y-6552380D01*
X-14900000Y-6552380D01*
X-14757142Y-6600000D01*
X-14661904Y-6695238D01*
X-14614285Y-6790476D01*
X-14566666Y-6980952D01*
X-14566666Y-7123809D01*
X-14614285Y-7314285D01*
X-14661904Y-7409523D01*
X-14757142Y-7504761D01*
X-14900000Y-7552380D01*
X-15138095Y-7552380D01*
X-14233333Y-6552380D02*
X-13614285Y-6552380D01*
X-13947619Y-6933333D01*
X-13804761Y-6933333D01*
X-13709523Y-6980952D01*
X-13661904Y-7028571D01*
X-13614285Y-7123809D01*
X-13614285Y-7361904D01*
X-13661904Y-7457142D01*
X-13709523Y-7504761D01*
X-13804761Y-7552380D01*
X-14090476Y-7552380D01*
X-14185714Y-7504761D01*
X-14233333Y-7457142D01*
X-5638095Y-32522380D02*
X-5638095Y-31522380D01*
X-5400000Y-31522380D01*
X-5257142Y-31570000D01*
X-5161904Y-31665238D01*
X-5114285Y-31760476D01*
X-5066666Y-31950952D01*
X-5066666Y-32093809D01*
X-5114285Y-32284285D01*
X-5161904Y-32379523D01*
X-5257142Y-32474761D01*
X-5400000Y-32522380D01*
X-5638095Y-32522380D01*
X-4495238Y-31950952D02*
X-4590476Y-31903333D01*
X-4638095Y-31855714D01*
X-4685714Y-31760476D01*
X-4685714Y-31712857D01*
X-4638095Y-31617619D01*
X-4590476Y-31570000D01*
X-4495238Y-31522380D01*
X-4304761Y-31522380D01*
X-4209523Y-31570000D01*
X-4161904Y-31617619D01*
X-4114285Y-31712857D01*
X-4114285Y-31760476D01*
X-4161904Y-31855714D01*
X-4209523Y-31903333D01*
X-4304761Y-31950952D01*
X-4495238Y-31950952D01*
X-4590476Y-31998571D01*
X-4638095Y-32046190D01*
X-4685714Y-32141428D01*
X-4685714Y-32331904D01*
X-4638095Y-32427142D01*
X-4590476Y-32474761D01*
X-4495238Y-32522380D01*
X-4304761Y-32522380D01*
X-4209523Y-32474761D01*
X-4161904Y-32427142D01*
X-4114285Y-32331904D01*
X-4114285Y-32141428D01*
X-4161904Y-32046190D01*
X-4209523Y-31998571D01*
X-4304761Y-31950952D01*
X-3138095Y-23152380D02*
X-3138095Y-22152380D01*
X-2900000Y-22152380D01*
X-2757142Y-22200000D01*
X-2661904Y-22295238D01*
X-2614285Y-22390476D01*
X-2566666Y-22580952D01*
X-2566666Y-22723809D01*
X-2614285Y-22914285D01*
X-2661904Y-23009523D01*
X-2757142Y-23104761D01*
X-2900000Y-23152380D01*
X-3138095Y-23152380D01*
X-2090476Y-23152380D02*
X-1900000Y-23152380D01*
X-1804761Y-23104761D01*
X-1757142Y-23057142D01*
X-1661904Y-22914285D01*
X-1614285Y-22723809D01*
X-1614285Y-22342857D01*
X-1661904Y-22247619D01*
X-1709523Y-22200000D01*
X-1804761Y-22152380D01*
X-1995238Y-22152380D01*
X-2090476Y-22200000D01*
X-2138095Y-22247619D01*
X-2185714Y-22342857D01*
X-2185714Y-22580952D01*
X-2138095Y-22676190D01*
X-2090476Y-22723809D01*
X-1995238Y-22771428D01*
X-1804761Y-22771428D01*
X-1709523Y-22723809D01*
X-1661904Y-22676190D01*
X-1614285Y-22580952D01*
D14*
X-29222328Y16639072D02*
X-30322181Y17274072D01*
X-28661838Y17851775D02*
X-28639702Y17769163D01*
X-28678043Y17581803D01*
X-28738519Y17477055D01*
X-28881607Y17350171D01*
X-29046831Y17305900D01*
X-29181817Y17314002D01*
X-29421551Y17382580D01*
X-29578672Y17473295D01*
X-29757930Y17646621D01*
X-29832440Y17759471D01*
X-29876711Y17924695D01*
X-29838371Y18112055D01*
X-29777895Y18216803D01*
X-29634807Y18343686D01*
X-29552195Y18365822D01*
X-29310290Y18784814D02*
X-29332426Y18867426D01*
X-29324323Y19002412D01*
X-29173133Y19264281D01*
X-29060283Y19338791D01*
X-28977671Y19360927D01*
X-28842685Y19352824D01*
X-28737937Y19292348D01*
X-28611053Y19149260D01*
X-28345423Y18157916D01*
X-27952328Y18838777D01*
D10*
X-15666666Y13647619D02*
X-16142857Y13647619D01*
X-16142857Y14647619D01*
X-15380952Y14552380D02*
X-15333333Y14600000D01*
X-15238095Y14647619D01*
X-15000000Y14647619D01*
X-14904761Y14600000D01*
X-14857142Y14552380D01*
X-14809523Y14457142D01*
X-14809523Y14361904D01*
X-14857142Y14219047D01*
X-15428571Y13647619D01*
X-14809523Y13647619D01*
X-2466666Y12947619D02*
X-2942857Y12947619D01*
X-2942857Y13947619D01*
X-2228571Y13947619D02*
X-1609523Y13947619D01*
X-1942857Y13566666D01*
X-1800000Y13566666D01*
X-1704761Y13519047D01*
X-1657142Y13471428D01*
X-1609523Y13376190D01*
X-1609523Y13138095D01*
X-1657142Y13042857D01*
X-1704761Y12995238D01*
X-1800000Y12947619D01*
X-2085714Y12947619D01*
X-2180952Y12995238D01*
X-2228571Y13042857D01*
X-35590318Y3430782D02*
X-35685556Y3478402D01*
X-35780794Y3573640D01*
X-35923651Y3716497D01*
X-36018889Y3764116D01*
X-36114127Y3764116D01*
X-36066508Y3526021D02*
X-36161746Y3573640D01*
X-36256984Y3668878D01*
X-36304603Y3859354D01*
X-36304603Y4192687D01*
X-36256984Y4383163D01*
X-36161746Y4478402D01*
X-36066508Y4526021D01*
X-35876032Y4526021D01*
X-35780794Y4478402D01*
X-35685556Y4383163D01*
X-35637937Y4192687D01*
X-35637937Y3859354D01*
X-35685556Y3668878D01*
X-35780794Y3573640D01*
X-35876032Y3526021D01*
X-36066508Y3526021D01*
X-34685556Y3526021D02*
X-35256984Y3526021D01*
X-34971270Y3526021D02*
X-34971270Y4526021D01*
X-35066508Y4383163D01*
X-35161746Y4287925D01*
X-35256984Y4240306D01*
X-5995238Y-2747619D02*
X-6090476Y-2700000D01*
X-6185714Y-2604761D01*
X-6328571Y-2461904D01*
X-6423809Y-2414285D01*
X-6519047Y-2414285D01*
X-6471428Y-2652380D02*
X-6566666Y-2604761D01*
X-6661904Y-2509523D01*
X-6709523Y-2319047D01*
X-6709523Y-1985714D01*
X-6661904Y-1795238D01*
X-6566666Y-1700000D01*
X-6471428Y-1652380D01*
X-6280952Y-1652380D01*
X-6185714Y-1700000D01*
X-6090476Y-1795238D01*
X-6042857Y-1985714D01*
X-6042857Y-2319047D01*
X-6090476Y-2509523D01*
X-6185714Y-2604761D01*
X-6280952Y-2652380D01*
X-6471428Y-2652380D01*
X-5661904Y-1747619D02*
X-5614285Y-1700000D01*
X-5519047Y-1652380D01*
X-5280952Y-1652380D01*
X-5185714Y-1700000D01*
X-5138095Y-1747619D01*
X-5090476Y-1842857D01*
X-5090476Y-1938095D01*
X-5138095Y-2080952D01*
X-5709523Y-2652380D01*
X-5090476Y-2652380D01*
X-29621871Y-32191330D02*
X-29628250Y-32085042D01*
X-29593391Y-31954945D01*
X-29541101Y-31759798D01*
X-29547481Y-31653510D01*
X-29595100Y-31571031D01*
X-29777487Y-31731318D02*
X-29783867Y-31625030D01*
X-29749007Y-31494933D01*
X-29607860Y-31358455D01*
X-29319185Y-31191788D01*
X-29130418Y-31137790D01*
X-29000320Y-31172649D01*
X-28911462Y-31231318D01*
X-28816224Y-31396276D01*
X-28809844Y-31502564D01*
X-28844704Y-31632661D01*
X-28985851Y-31769139D01*
X-29274526Y-31935805D01*
X-29463293Y-31989804D01*
X-29593391Y-31954945D01*
X-29682249Y-31896276D01*
X-29777487Y-31731318D01*
X-28530509Y-31891147D02*
X-28220986Y-32427258D01*
X-28717567Y-32329059D01*
X-28646138Y-32452777D01*
X-28639758Y-32559065D01*
X-28657188Y-32624114D01*
X-28715857Y-32712972D01*
X-28922054Y-32832020D01*
X-29028342Y-32838400D01*
X-29093391Y-32820970D01*
X-29182249Y-32762301D01*
X-29325106Y-32514865D01*
X-29331486Y-32408577D01*
X-29314056Y-32343528D01*
X-19295594Y-27815287D02*
X-19301973Y-27708999D01*
X-19267114Y-27578902D01*
X-19214824Y-27383755D01*
X-19221204Y-27277467D01*
X-19268823Y-27194988D01*
X-19451210Y-27355275D02*
X-19457590Y-27248987D01*
X-19422730Y-27118890D01*
X-19281583Y-26982412D01*
X-18992908Y-26815745D01*
X-18804141Y-26761747D01*
X-18674043Y-26796606D01*
X-18585185Y-26855275D01*
X-18489947Y-27020233D01*
X-18483567Y-27126521D01*
X-18518427Y-27256618D01*
X-18659574Y-27393096D01*
X-18948249Y-27559762D01*
X-19137016Y-27613761D01*
X-19267114Y-27578902D01*
X-19355972Y-27520233D01*
X-19451210Y-27355275D01*
X-18231003Y-28135403D02*
X-18808353Y-28468737D01*
X-18020136Y-27738731D02*
X-18757773Y-27889677D01*
X-18448249Y-28425788D01*
X-36321871Y-20391330D02*
X-36328250Y-20285042D01*
X-36293391Y-20154945D01*
X-36241101Y-19959798D01*
X-36247481Y-19853510D01*
X-36295100Y-19771031D01*
X-36477487Y-19931318D02*
X-36483867Y-19825030D01*
X-36449007Y-19694933D01*
X-36307860Y-19558455D01*
X-36019185Y-19391788D01*
X-35830418Y-19337790D01*
X-35700320Y-19372649D01*
X-35611462Y-19431318D01*
X-35516224Y-19596276D01*
X-35509844Y-19702564D01*
X-35544704Y-19832661D01*
X-35685851Y-19969139D01*
X-35974526Y-20135805D01*
X-36163293Y-20189804D01*
X-36293391Y-20154945D01*
X-36382249Y-20096276D01*
X-36477487Y-19931318D01*
X-34944795Y-20586019D02*
X-35182890Y-20173626D01*
X-35619093Y-20370482D01*
X-35554044Y-20387912D01*
X-35465186Y-20446581D01*
X-35346138Y-20652777D01*
X-35339758Y-20759065D01*
X-35357188Y-20824114D01*
X-35415857Y-20912972D01*
X-35622054Y-21032020D01*
X-35728342Y-21038400D01*
X-35793391Y-21020970D01*
X-35882249Y-20962301D01*
X-36001297Y-20756104D01*
X-36007676Y-20649816D01*
X-35990247Y-20584767D01*
X-27621871Y-15291330D02*
X-27628250Y-15185042D01*
X-27593391Y-15054945D01*
X-27541101Y-14859798D01*
X-27547481Y-14753510D01*
X-27595100Y-14671031D01*
X-27777487Y-14831318D02*
X-27783867Y-14725030D01*
X-27749007Y-14594933D01*
X-27607860Y-14458455D01*
X-27319185Y-14291788D01*
X-27130418Y-14237790D01*
X-27000320Y-14272649D01*
X-26911462Y-14331318D01*
X-26816224Y-14496276D01*
X-26809844Y-14602564D01*
X-26844704Y-14732661D01*
X-26985851Y-14869139D01*
X-27274526Y-15035805D01*
X-27463293Y-15089804D01*
X-27593391Y-15054945D01*
X-27682249Y-14996276D01*
X-27777487Y-14831318D01*
X-26268605Y-15444780D02*
X-26363843Y-15279822D01*
X-26452701Y-15221153D01*
X-26517750Y-15203723D01*
X-26689087Y-15192673D01*
X-26877854Y-15246672D01*
X-27207768Y-15437148D01*
X-27266437Y-15526007D01*
X-27283867Y-15591056D01*
X-27277487Y-15697344D01*
X-27182249Y-15862301D01*
X-27093391Y-15920970D01*
X-27028342Y-15938400D01*
X-26922054Y-15932020D01*
X-26715857Y-15812972D01*
X-26657188Y-15724114D01*
X-26639758Y-15659065D01*
X-26646138Y-15552777D01*
X-26741376Y-15387820D01*
X-26830235Y-15329151D01*
X-26895283Y-15311721D01*
X-27001572Y-15318101D01*
X14133333Y33217619D02*
X13800000Y33693809D01*
X13561904Y33217619D02*
X13561904Y34217619D01*
X13942857Y34217619D01*
X14038095Y34170000D01*
X14085714Y34122380D01*
X14133333Y34027142D01*
X14133333Y33884285D01*
X14085714Y33789047D01*
X14038095Y33741428D01*
X13942857Y33693809D01*
X13561904Y33693809D01*
X15085714Y33217619D02*
X14514285Y33217619D01*
X14800000Y33217619D02*
X14800000Y34217619D01*
X14704761Y34074761D01*
X14609523Y33979523D01*
X14514285Y33931904D01*
X14133333Y37017619D02*
X13800000Y37493809D01*
X13561904Y37017619D02*
X13561904Y38017619D01*
X13942857Y38017619D01*
X14038095Y37970000D01*
X14085714Y37922380D01*
X14133333Y37827142D01*
X14133333Y37684285D01*
X14085714Y37589047D01*
X14038095Y37541428D01*
X13942857Y37493809D01*
X13561904Y37493809D01*
X14514285Y37922380D02*
X14561904Y37970000D01*
X14657142Y38017619D01*
X14895238Y38017619D01*
X14990476Y37970000D01*
X15038095Y37922380D01*
X15085714Y37827142D01*
X15085714Y37731904D01*
X15038095Y37589047D01*
X14466666Y37017619D01*
X15085714Y37017619D01*
X3452380Y-4542857D02*
X2976190Y-4876190D01*
X3452380Y-5114285D02*
X2452380Y-5114285D01*
X2452380Y-4733333D01*
X2500000Y-4638095D01*
X2547619Y-4590476D01*
X2642857Y-4542857D01*
X2785714Y-4542857D01*
X2880952Y-4590476D01*
X2928571Y-4638095D01*
X2976190Y-4733333D01*
X2976190Y-5114285D01*
X3452380Y-3590476D02*
X3452380Y-4161904D01*
X3452380Y-3876190D02*
X2452380Y-3876190D01*
X2595238Y-3971428D01*
X2690476Y-4066666D01*
X2738095Y-4161904D01*
X2452380Y-2971428D02*
X2452380Y-2876190D01*
X2500000Y-2780952D01*
X2547619Y-2733333D01*
X2642857Y-2685714D01*
X2833333Y-2638095D01*
X3071428Y-2638095D01*
X3261904Y-2685714D01*
X3357142Y-2733333D01*
X3404761Y-2780952D01*
X3452380Y-2876190D01*
X3452380Y-2971428D01*
X3404761Y-3066666D01*
X3357142Y-3114285D01*
X3261904Y-3161904D01*
X3071428Y-3209523D01*
X2833333Y-3209523D01*
X2642857Y-3161904D01*
X2547619Y-3114285D01*
X2500000Y-3066666D01*
X2452380Y-2971428D01*
X5452380Y-4542857D02*
X4976190Y-4876190D01*
X5452380Y-5114285D02*
X4452380Y-5114285D01*
X4452380Y-4733333D01*
X4500000Y-4638095D01*
X4547619Y-4590476D01*
X4642857Y-4542857D01*
X4785714Y-4542857D01*
X4880952Y-4590476D01*
X4928571Y-4638095D01*
X4976190Y-4733333D01*
X4976190Y-5114285D01*
X5452380Y-3590476D02*
X5452380Y-4161904D01*
X5452380Y-3876190D02*
X4452380Y-3876190D01*
X4595238Y-3971428D01*
X4690476Y-4066666D01*
X4738095Y-4161904D01*
X5452380Y-2638095D02*
X5452380Y-3209523D01*
X5452380Y-2923809D02*
X4452380Y-2923809D01*
X4595238Y-3019047D01*
X4690476Y-3114285D01*
X4738095Y-3209523D01*
X7452380Y-4642857D02*
X6976190Y-4976190D01*
X7452380Y-5214285D02*
X6452380Y-5214285D01*
X6452380Y-4833333D01*
X6500000Y-4738095D01*
X6547619Y-4690476D01*
X6642857Y-4642857D01*
X6785714Y-4642857D01*
X6880952Y-4690476D01*
X6928571Y-4738095D01*
X6976190Y-4833333D01*
X6976190Y-5214285D01*
X7452380Y-3690476D02*
X7452380Y-4261904D01*
X7452380Y-3976190D02*
X6452380Y-3976190D01*
X6595238Y-4071428D01*
X6690476Y-4166666D01*
X6738095Y-4261904D01*
X6547619Y-3309523D02*
X6500000Y-3261904D01*
X6452380Y-3166666D01*
X6452380Y-2928571D01*
X6500000Y-2833333D01*
X6547619Y-2785714D01*
X6642857Y-2738095D01*
X6738095Y-2738095D01*
X6880952Y-2785714D01*
X7452380Y-3357142D01*
X7452380Y-2738095D01*
X-37347619Y835542D02*
X-37823809Y502209D01*
X-37347619Y264114D02*
X-38347619Y264114D01*
X-38347619Y645066D01*
X-38300000Y740304D01*
X-38252380Y787923D01*
X-38157142Y835542D01*
X-38014285Y835542D01*
X-37919047Y787923D01*
X-37871428Y740304D01*
X-37823809Y645066D01*
X-37823809Y264114D01*
X-37347619Y1787923D02*
X-37347619Y1216495D01*
X-37347619Y1502209D02*
X-38347619Y1502209D01*
X-38204761Y1406971D01*
X-38109523Y1311733D01*
X-38061904Y1216495D01*
X-38347619Y2121257D02*
X-38347619Y2740304D01*
X-37966666Y2406971D01*
X-37966666Y2549828D01*
X-37919047Y2645066D01*
X-37871428Y2692685D01*
X-37776190Y2740304D01*
X-37538095Y2740304D01*
X-37442857Y2692685D01*
X-37395238Y2645066D01*
X-37347619Y2549828D01*
X-37347619Y2264114D01*
X-37395238Y2168876D01*
X-37442857Y2121257D01*
X-31819937Y3472018D02*
X-32153270Y3948208D01*
X-32391365Y3472018D02*
X-32391365Y4472018D01*
X-32010413Y4472018D01*
X-31915175Y4424399D01*
X-31867556Y4376779D01*
X-31819937Y4281541D01*
X-31819937Y4138684D01*
X-31867556Y4043446D01*
X-31915175Y3995827D01*
X-32010413Y3948208D01*
X-32391365Y3948208D01*
X-30867556Y3472018D02*
X-31438984Y3472018D01*
X-31153270Y3472018D02*
X-31153270Y4472018D01*
X-31248508Y4329160D01*
X-31343746Y4233922D01*
X-31438984Y4186303D01*
X-30010413Y4138684D02*
X-30010413Y3472018D01*
X-30248508Y4519637D02*
X-30486603Y3805351D01*
X-29867556Y3805351D01*
X-31819936Y847619D02*
X-32153269Y1323809D01*
X-32391364Y847619D02*
X-32391364Y1847619D01*
X-32010412Y1847619D01*
X-31915174Y1800000D01*
X-31867555Y1752380D01*
X-31819936Y1657142D01*
X-31819936Y1514285D01*
X-31867555Y1419047D01*
X-31915174Y1371428D01*
X-32010412Y1323809D01*
X-32391364Y1323809D01*
X-30867555Y847619D02*
X-31438983Y847619D01*
X-31153269Y847619D02*
X-31153269Y1847619D01*
X-31248507Y1704761D01*
X-31343745Y1609523D01*
X-31438983Y1561904D01*
X-29962793Y1847619D02*
X-30438983Y1847619D01*
X-30486602Y1371428D01*
X-30438983Y1419047D01*
X-30343745Y1466666D01*
X-30105650Y1466666D01*
X-30010412Y1419047D01*
X-29962793Y1371428D01*
X-29915174Y1276190D01*
X-29915174Y1038095D01*
X-29962793Y942857D01*
X-30010412Y895238D01*
X-30105650Y847619D01*
X-30343745Y847619D01*
X-30438983Y895238D01*
X-30486602Y942857D01*
X-26150936Y3435019D02*
X-26484269Y3911209D01*
X-26722364Y3435019D02*
X-26722364Y4435019D01*
X-26341412Y4435019D01*
X-26246174Y4387400D01*
X-26198555Y4339780D01*
X-26150936Y4244542D01*
X-26150936Y4101685D01*
X-26198555Y4006447D01*
X-26246174Y3958828D01*
X-26341412Y3911209D01*
X-26722364Y3911209D01*
X-25198555Y3435019D02*
X-25769983Y3435019D01*
X-25484269Y3435019D02*
X-25484269Y4435019D01*
X-25579507Y4292161D01*
X-25674745Y4196923D01*
X-25769983Y4149304D01*
X-24341412Y4435019D02*
X-24531888Y4435019D01*
X-24627126Y4387400D01*
X-24674745Y4339780D01*
X-24769983Y4196923D01*
X-24817602Y4006447D01*
X-24817602Y3625495D01*
X-24769983Y3530257D01*
X-24722364Y3482638D01*
X-24627126Y3435019D01*
X-24436650Y3435019D01*
X-24341412Y3482638D01*
X-24293793Y3530257D01*
X-24246174Y3625495D01*
X-24246174Y3863590D01*
X-24293793Y3958828D01*
X-24341412Y4006447D01*
X-24436650Y4054066D01*
X-24627126Y4054066D01*
X-24722364Y4006447D01*
X-24769983Y3958828D01*
X-24817602Y3863590D01*
X-40568698Y-5585456D02*
X-41044888Y-5918789D01*
X-40568698Y-6156884D02*
X-41568698Y-6156884D01*
X-41568698Y-5775932D01*
X-41521079Y-5680694D01*
X-41473459Y-5633075D01*
X-41378221Y-5585456D01*
X-41235364Y-5585456D01*
X-41140126Y-5633075D01*
X-41092507Y-5680694D01*
X-41044888Y-5775932D01*
X-41044888Y-6156884D01*
X-40568698Y-4633075D02*
X-40568698Y-5204503D01*
X-40568698Y-4918789D02*
X-41568698Y-4918789D01*
X-41425840Y-5014027D01*
X-41330602Y-5109265D01*
X-41282983Y-5204503D01*
X-41568698Y-4299741D02*
X-41568698Y-3633075D01*
X-40568698Y-4061646D01*
X-40142857Y-2452380D02*
X-40476190Y-1976190D01*
X-40714285Y-2452380D02*
X-40714285Y-1452380D01*
X-40333333Y-1452380D01*
X-40238095Y-1500000D01*
X-40190476Y-1547619D01*
X-40142857Y-1642857D01*
X-40142857Y-1785714D01*
X-40190476Y-1880952D01*
X-40238095Y-1928571D01*
X-40333333Y-1976190D01*
X-40714285Y-1976190D01*
X-39190476Y-2452380D02*
X-39761904Y-2452380D01*
X-39476190Y-2452380D02*
X-39476190Y-1452380D01*
X-39571428Y-1595238D01*
X-39666666Y-1690476D01*
X-39761904Y-1738095D01*
X-38619047Y-1880952D02*
X-38714285Y-1833333D01*
X-38761904Y-1785714D01*
X-38809523Y-1690476D01*
X-38809523Y-1642857D01*
X-38761904Y-1547619D01*
X-38714285Y-1500000D01*
X-38619047Y-1452380D01*
X-38428571Y-1452380D01*
X-38333333Y-1500000D01*
X-38285714Y-1547619D01*
X-38238095Y-1642857D01*
X-38238095Y-1690476D01*
X-38285714Y-1785714D01*
X-38333333Y-1833333D01*
X-38428571Y-1880952D01*
X-38619047Y-1880952D01*
X-38714285Y-1928571D01*
X-38761904Y-1976190D01*
X-38809523Y-2071428D01*
X-38809523Y-2261904D01*
X-38761904Y-2357142D01*
X-38714285Y-2404761D01*
X-38619047Y-2452380D01*
X-38428571Y-2452380D01*
X-38333333Y-2404761D01*
X-38285714Y-2357142D01*
X-38238095Y-2261904D01*
X-38238095Y-2071428D01*
X-38285714Y-1976190D01*
X-38333333Y-1928571D01*
X-38428571Y-1880952D01*
X-20642857Y-752380D02*
X-20976190Y-276190D01*
X-21214285Y-752380D02*
X-21214285Y247619D01*
X-20833333Y247619D01*
X-20738095Y200000D01*
X-20690476Y152380D01*
X-20642857Y57142D01*
X-20642857Y-85714D01*
X-20690476Y-180952D01*
X-20738095Y-228571D01*
X-20833333Y-276190D01*
X-21214285Y-276190D01*
X-19690476Y-752380D02*
X-20261904Y-752380D01*
X-19976190Y-752380D02*
X-19976190Y247619D01*
X-20071428Y104761D01*
X-20166666Y9523D01*
X-20261904Y-38095D01*
X-19214285Y-752380D02*
X-19023809Y-752380D01*
X-18928571Y-704761D01*
X-18880952Y-657142D01*
X-18785714Y-514285D01*
X-18738095Y-323809D01*
X-18738095Y57142D01*
X-18785714Y152380D01*
X-18833333Y200000D01*
X-18928571Y247619D01*
X-19119047Y247619D01*
X-19214285Y200000D01*
X-19261904Y152380D01*
X-19309523Y57142D01*
X-19309523Y-180952D01*
X-19261904Y-276190D01*
X-19214285Y-323809D01*
X-19119047Y-371428D01*
X-18928571Y-371428D01*
X-18833333Y-323809D01*
X-18785714Y-276190D01*
X-18738095Y-180952D01*
X-27542857Y-7752380D02*
X-27876190Y-7276190D01*
X-28114285Y-7752380D02*
X-28114285Y-6752380D01*
X-27733333Y-6752380D01*
X-27638095Y-6800000D01*
X-27590476Y-6847619D01*
X-27542857Y-6942857D01*
X-27542857Y-7085714D01*
X-27590476Y-7180952D01*
X-27638095Y-7228571D01*
X-27733333Y-7276190D01*
X-28114285Y-7276190D01*
X-27161904Y-6847619D02*
X-27114285Y-6800000D01*
X-27019047Y-6752380D01*
X-26780952Y-6752380D01*
X-26685714Y-6800000D01*
X-26638095Y-6847619D01*
X-26590476Y-6942857D01*
X-26590476Y-7038095D01*
X-26638095Y-7180952D01*
X-27209523Y-7752380D01*
X-26590476Y-7752380D01*
X-25971428Y-6752380D02*
X-25876190Y-6752380D01*
X-25780952Y-6800000D01*
X-25733333Y-6847619D01*
X-25685714Y-6942857D01*
X-25638095Y-7133333D01*
X-25638095Y-7371428D01*
X-25685714Y-7561904D01*
X-25733333Y-7657142D01*
X-25780952Y-7704761D01*
X-25876190Y-7752380D01*
X-25971428Y-7752380D01*
X-26066666Y-7704761D01*
X-26114285Y-7657142D01*
X-26161904Y-7561904D01*
X-26209523Y-7371428D01*
X-26209523Y-7133333D01*
X-26161904Y-6942857D01*
X-26114285Y-6847619D01*
X-26066666Y-6800000D01*
X-25971428Y-6752380D01*
X-31642857Y-10152380D02*
X-31976190Y-9676190D01*
X-32214285Y-10152380D02*
X-32214285Y-9152380D01*
X-31833333Y-9152380D01*
X-31738095Y-9200000D01*
X-31690476Y-9247619D01*
X-31642857Y-9342857D01*
X-31642857Y-9485714D01*
X-31690476Y-9580952D01*
X-31738095Y-9628571D01*
X-31833333Y-9676190D01*
X-32214285Y-9676190D01*
X-31261904Y-9247619D02*
X-31214285Y-9200000D01*
X-31119047Y-9152380D01*
X-30880952Y-9152380D01*
X-30785714Y-9200000D01*
X-30738095Y-9247619D01*
X-30690476Y-9342857D01*
X-30690476Y-9438095D01*
X-30738095Y-9580952D01*
X-31309523Y-10152380D01*
X-30690476Y-10152380D01*
X-29738095Y-10152380D02*
X-30309523Y-10152380D01*
X-30023809Y-10152380D02*
X-30023809Y-9152380D01*
X-30119047Y-9295238D01*
X-30214285Y-9390476D01*
X-30309523Y-9438095D01*
X-24735157Y-35883668D02*
X-25261927Y-35637942D01*
X-25230028Y-36169383D02*
X-25730028Y-35303357D01*
X-25400114Y-35112881D01*
X-25293826Y-35106501D01*
X-25228777Y-35123931D01*
X-25139919Y-35182600D01*
X-25068490Y-35306318D01*
X-25062110Y-35412606D01*
X-25079540Y-35477655D01*
X-25138209Y-35566514D01*
X-25468124Y-35756990D01*
X-24857623Y-34909645D02*
X-24840193Y-34844597D01*
X-24781524Y-34755738D01*
X-24575328Y-34636691D01*
X-24469040Y-34630311D01*
X-24403991Y-34647741D01*
X-24315132Y-34706410D01*
X-24267513Y-34788888D01*
X-24237324Y-34936416D01*
X-24446482Y-35717002D01*
X-23910371Y-35407478D01*
X-24032837Y-34433455D02*
X-24015407Y-34368406D01*
X-23956738Y-34279548D01*
X-23750542Y-34160500D01*
X-23644254Y-34154120D01*
X-23579205Y-34171550D01*
X-23490346Y-34230219D01*
X-23442727Y-34312698D01*
X-23412538Y-34460225D01*
X-23621695Y-35240811D01*
X-23085584Y-34931288D01*
X-21513201Y-16569459D02*
X-21267475Y-16042689D01*
X-21798916Y-16074588D02*
X-20932890Y-15574588D01*
X-20742414Y-15904502D01*
X-20736034Y-16010790D01*
X-20753464Y-16075839D01*
X-20812133Y-16164697D01*
X-20935851Y-16236126D01*
X-21042139Y-16242506D01*
X-21107188Y-16225076D01*
X-21196047Y-16166407D01*
X-21386523Y-15836492D01*
X-20539178Y-16446993D02*
X-20474130Y-16464423D01*
X-20385271Y-16523092D01*
X-20266224Y-16729288D01*
X-20259844Y-16835576D01*
X-20277274Y-16900625D01*
X-20335943Y-16989484D01*
X-20418421Y-17037103D01*
X-20565949Y-17067292D01*
X-21346535Y-16858134D01*
X-21037011Y-17394245D01*
X-20004319Y-17182921D02*
X-19694795Y-17719032D01*
X-20191376Y-17620833D01*
X-20119948Y-17744551D01*
X-20113568Y-17850839D01*
X-20130998Y-17915887D01*
X-20189667Y-18004746D01*
X-20395863Y-18123793D01*
X-20502151Y-18130173D01*
X-20567200Y-18112743D01*
X-20656059Y-18054074D01*
X-20798916Y-17806639D01*
X-20805295Y-17700350D01*
X-20787866Y-17635302D01*
X-34930540Y-17713201D02*
X-35457310Y-17467475D01*
X-35425411Y-17998916D02*
X-35925411Y-17132890D01*
X-35595497Y-16942414D01*
X-35489209Y-16936034D01*
X-35424160Y-16953464D01*
X-35335302Y-17012133D01*
X-35263873Y-17135851D01*
X-35257493Y-17242139D01*
X-35274923Y-17307188D01*
X-35333592Y-17396047D01*
X-35663507Y-17586523D01*
X-35053006Y-16739178D02*
X-35035576Y-16674130D01*
X-34976907Y-16585271D01*
X-34770711Y-16466224D01*
X-34664423Y-16459844D01*
X-34599374Y-16477274D01*
X-34510515Y-16535943D01*
X-34462896Y-16618421D01*
X-34432707Y-16765949D01*
X-34641865Y-17546535D01*
X-34105754Y-17237011D01*
X-33696779Y-16231089D02*
X-33363446Y-16808440D01*
X-34093452Y-16020222D02*
X-33942506Y-16757860D01*
X-33406395Y-16448336D01*
X-33213201Y-25569459D02*
X-32967475Y-25042689D01*
X-33498916Y-25074588D02*
X-32632890Y-24574588D01*
X-32442414Y-24904502D01*
X-32436034Y-25010790D01*
X-32453464Y-25075839D01*
X-32512133Y-25164697D01*
X-32635851Y-25236126D01*
X-32742139Y-25242506D01*
X-32807188Y-25225076D01*
X-32896047Y-25166407D01*
X-33086523Y-24836492D01*
X-32239178Y-25446993D02*
X-32174130Y-25464423D01*
X-32085271Y-25523092D01*
X-31966224Y-25729288D01*
X-31959844Y-25835576D01*
X-31977274Y-25900625D01*
X-32035943Y-25989484D01*
X-32118421Y-26037103D01*
X-32265949Y-26067292D01*
X-33046535Y-25858134D01*
X-32737011Y-26394245D01*
X-31418605Y-26677792D02*
X-31656700Y-26265399D01*
X-32092902Y-26462255D01*
X-32027854Y-26479685D01*
X-31938995Y-26538354D01*
X-31819948Y-26744551D01*
X-31813568Y-26850839D01*
X-31830998Y-26915887D01*
X-31889667Y-27004746D01*
X-32095863Y-27123793D01*
X-32202151Y-27130173D01*
X-32267200Y-27112743D01*
X-32356059Y-27054074D01*
X-32475106Y-26847878D01*
X-32481486Y-26741590D01*
X-32464056Y-26676541D01*
X-30730540Y-15313201D02*
X-31257310Y-15067475D01*
X-31225411Y-15598916D02*
X-31725411Y-14732890D01*
X-31395497Y-14542414D01*
X-31289209Y-14536034D01*
X-31224160Y-14553464D01*
X-31135302Y-14612133D01*
X-31063873Y-14735851D01*
X-31057493Y-14842139D01*
X-31074923Y-14907188D01*
X-31133592Y-14996047D01*
X-31463507Y-15186523D01*
X-30853006Y-14339178D02*
X-30835576Y-14274130D01*
X-30776907Y-14185271D01*
X-30570711Y-14066224D01*
X-30464423Y-14059844D01*
X-30399374Y-14077274D01*
X-30310515Y-14135943D01*
X-30262896Y-14218421D01*
X-30232707Y-14365949D01*
X-30441865Y-15146535D01*
X-29905754Y-14837011D01*
X-29663446Y-13542414D02*
X-29828403Y-13637652D01*
X-29887072Y-13726511D01*
X-29904502Y-13791559D01*
X-29915552Y-13962896D01*
X-29861553Y-14151663D01*
X-29671077Y-14481578D01*
X-29582219Y-14540247D01*
X-29517170Y-14557676D01*
X-29410882Y-14551297D01*
X-29245925Y-14456059D01*
X-29187256Y-14367200D01*
X-29169826Y-14302151D01*
X-29176206Y-14195863D01*
X-29295253Y-13989667D01*
X-29384112Y-13930998D01*
X-29449160Y-13913568D01*
X-29555448Y-13919948D01*
X-29720406Y-14015186D01*
X-29779075Y-14104044D01*
X-29796505Y-14169093D01*
X-29790125Y-14275381D01*
X-28913201Y-22969458D02*
X-28667475Y-22442688D01*
X-29198916Y-22474587D02*
X-28332890Y-21974587D01*
X-28142414Y-22304501D01*
X-28136034Y-22410789D01*
X-28153464Y-22475838D01*
X-28212133Y-22564696D01*
X-28335851Y-22636125D01*
X-28442139Y-22642505D01*
X-28507188Y-22625075D01*
X-28596047Y-22566406D01*
X-28786523Y-22236491D01*
X-27939178Y-22846992D02*
X-27874130Y-22864422D01*
X-27785271Y-22923091D01*
X-27666224Y-23129287D01*
X-27659844Y-23235575D01*
X-27677274Y-23300624D01*
X-27735943Y-23389483D01*
X-27818421Y-23437102D01*
X-27965949Y-23467291D01*
X-28746535Y-23258133D01*
X-28437011Y-23794244D01*
X-27404319Y-23582920D02*
X-27070986Y-24160270D01*
X-28151297Y-24289116D01*
X-21398419Y19332205D02*
X-21977478Y19281626D01*
X-21684133Y18837334D02*
X-22550158Y19337334D01*
X-22359682Y19667248D01*
X-22270824Y19725917D01*
X-22205775Y19743347D01*
X-22099487Y19736967D01*
X-21975769Y19665539D01*
X-21917100Y19576680D01*
X-21899670Y19511632D01*
X-21906050Y19405343D01*
X-22096526Y19075429D01*
X-21991489Y20114501D02*
X-22008919Y20179550D01*
X-22002539Y20285838D01*
X-21883492Y20492034D01*
X-21794633Y20550703D01*
X-21729585Y20568133D01*
X-21623296Y20561753D01*
X-21540818Y20514134D01*
X-21440909Y20401466D01*
X-21231752Y19620881D01*
X-20922228Y20156992D01*
X-21131386Y20937577D02*
X-21220244Y20878908D01*
X-21285293Y20861479D01*
X-21391581Y20867858D01*
X-21432820Y20891668D01*
X-21491489Y20980526D01*
X-21508919Y21045575D01*
X-21502539Y21151863D01*
X-21407301Y21316820D01*
X-21318443Y21375489D01*
X-21253394Y21392919D01*
X-21147106Y21386540D01*
X-21105867Y21362730D01*
X-21047198Y21273872D01*
X-21029768Y21208823D01*
X-21036147Y21102535D01*
X-21131386Y20937577D01*
X-21137765Y20831289D01*
X-21120336Y20766240D01*
X-21061666Y20677382D01*
X-20896709Y20582144D01*
X-20790421Y20575764D01*
X-20725372Y20593194D01*
X-20636514Y20651863D01*
X-20541276Y20816820D01*
X-20534896Y20923109D01*
X-20552326Y20988157D01*
X-20610995Y21077016D01*
X-20775952Y21172254D01*
X-20882240Y21178634D01*
X-20947289Y21161204D01*
X-21036147Y21102535D01*
X-25429655Y21717078D02*
X-26008714Y21666499D01*
X-25715369Y21222207D02*
X-26581394Y21722207D01*
X-26390918Y22052121D01*
X-26302060Y22110790D01*
X-26237011Y22128220D01*
X-26130723Y22121840D01*
X-26007005Y22050412D01*
X-25948336Y21961553D01*
X-25930906Y21896505D01*
X-25937286Y21790216D01*
X-26127762Y21460302D01*
X-26022725Y22499374D02*
X-26040155Y22564423D01*
X-26033775Y22670711D01*
X-25914728Y22876907D01*
X-25825869Y22935576D01*
X-25760821Y22953006D01*
X-25654532Y22946626D01*
X-25572054Y22899007D01*
X-25472145Y22786339D01*
X-25262988Y22005754D01*
X-24953464Y22541865D01*
X-24715369Y22954258D02*
X-24620131Y23119215D01*
X-24613751Y23225503D01*
X-24631181Y23290552D01*
X-24707280Y23444459D01*
X-24848427Y23580936D01*
X-25178342Y23771413D01*
X-25284630Y23777792D01*
X-25349679Y23760362D01*
X-25438537Y23701693D01*
X-25533775Y23536736D01*
X-25540155Y23430448D01*
X-25522725Y23365399D01*
X-25464056Y23276541D01*
X-25257860Y23157493D01*
X-25151572Y23151113D01*
X-25086523Y23168543D01*
X-24997664Y23227212D01*
X-24902426Y23392170D01*
X-24896047Y23498458D01*
X-24913476Y23563507D01*
X-24972145Y23652365D01*
X-34261904Y-352380D02*
X-34261904Y-1161904D01*
X-34214285Y-1257142D01*
X-34166666Y-1304761D01*
X-34071428Y-1352380D01*
X-33880952Y-1352380D01*
X-33785714Y-1304761D01*
X-33738095Y-1257142D01*
X-33690476Y-1161904D01*
X-33690476Y-352380D01*
X-33309523Y-352380D02*
X-32690476Y-352380D01*
X-33023809Y-733333D01*
X-32880952Y-733333D01*
X-32785714Y-780952D01*
X-32738095Y-828571D01*
X-32690476Y-923809D01*
X-32690476Y-1161904D01*
X-32738095Y-1257142D01*
X-32785714Y-1304761D01*
X-32880952Y-1352380D01*
X-33166666Y-1352380D01*
X-33261904Y-1304761D01*
X-33309523Y-1257142D01*
M02*
