M48
; DRILL file {KiCad (5.1.5)-3} date 03/04/2020 10:32:29
; FORMAT={-:-/ absolute / inch / decimal}
; #@! TF.CreationDate,2020-04-03T10:32:29+01:00
; #@! TF.GenerationSoftware,Kicad,Pcbnew,(5.1.5)-3
FMAT,2
INCH
T1C0.0118
T2C0.0197
T3C0.0315
T4C0.0354
T5C0.0394
T6C0.0472
T7C0.1063
%
G90
G05
T1
X-1.6417Y0.2559
X-1.5984Y0.2902
X-1.4016Y0.2902
X-1.3189Y0.2598
X-1.185Y0.9324
X-1.185Y0.7824
X-1.1154Y-0.539
X-1.0913Y-0.5067
X-1.0704Y0.2441
X-1.0354Y1.0276
X-0.9961Y0.189
X-0.9331Y0.626
X-0.9331Y0.5945
X-0.9291Y0.2441
X-0.9291Y0.2992
X-0.8583Y1.185
X-0.8228Y0.6654
X-0.7441Y1.2205
X-0.7185Y1.2854
X-0.6722Y1.2205
X-0.6654Y1.1181
X-0.5984Y0.063
X-0.5394Y0.8071
X-0.5276Y1.374
X-0.4764Y0.8307
X-0.4685Y1.5512
X-0.4606Y0.9803
X-0.4606Y0.8819
X-0.4567Y1.4685
X-0.4567Y1.4331
X-0.4331Y0.7323
X-0.2854Y0.3146
X-0.2598Y0.5591
X-0.248Y0.2756
X-0.2244Y0.5591
X-0.189Y0.5591
X-0.1496Y0.8031
X-0.1378Y0.4843
X-0.1299Y0.2756
X-0.1102Y0.8031
X-0.1047Y0.3146
X-0.0689Y-1.3737
X-0.0414Y-1.3583
X-0.0158Y-1.1473
X0.0039Y-0.8465
X0.0098Y-1.3422
X0.0098Y-1.374
X0.0315Y1.0433
X0.0354Y0.9094
X0.0472Y0.7835
X0.061Y-1.3737
X0.0748Y-1.1473
X0.1181Y0.2874
X0.2362Y0.5236
X0.248Y0.8307
X0.2598Y-0.126
X0.2795Y0.2756
X0.3071Y0.0551
X0.308Y-1.2212
X0.3583Y0.5669
X0.3779Y-1.0319
X0.3937Y0.5709
X0.4094Y-1.0686
X0.4204Y-0.8158
X0.4449Y1.0827
X0.448Y1.3811
X0.4482Y1.481
X0.4484Y1.5311
X0.4495Y1.4311
X0.4724Y0.3307
X0.5039Y0.6929
X0.5118Y0.7598
X0.5301Y-0.8189
X0.5433Y1.0827
X0.5709Y0.3268
X0.6103Y-0.8189
X0.6408Y1.5319
X0.6416Y1.3494
X0.6535Y-0.2835
X0.6614Y-0.4567
X0.6732Y0.3701
X0.6969Y1.3504
X0.7598Y1.3504
X0.7796Y-0.8189
X0.7874Y0.8583
X0.7913Y0.7283
X0.8102Y-1.1166
X0.811Y-0.8819
X0.878Y0.7362
X0.878Y-0.8189
X1.0433Y0.7756
X1.2992Y-0.8878
X0.4404Y-0.9168
X0.4404Y-0.9552
X0.4404Y-0.9936
X0.4787Y-0.9168
X0.4787Y-0.9552
X0.4787Y-0.9936
X0.5171Y-0.9168
X0.5171Y-0.9552
X0.5171Y-0.9936
X0.3049Y0.198
X0.3049Y0.1515
X0.3514Y0.198
X0.3514Y0.1515
T3
X-0.8682Y-0.4269
X-0.7304Y-0.4269
T4
X1.0093Y0.1236
X1.0093Y-0.1717
X1.1077Y0.1236
X1.1077Y-0.1717
X1.2062Y0.1236
X1.2062Y-0.1717
X1.3046Y0.1236
X1.3046Y-0.1717
X1.403Y0.1236
X1.403Y-0.1717
T5
X1.0787Y1.2362
X-1.437Y-0.4803
X-0.7445Y1.0079
X-0.7445Y0.9079
X-0.7445Y0.8079
X-0.7445Y0.7079
X0.6732Y0.122
X-0.2283Y-0.8181
X-0.2283Y-0.9181
X-0.2283Y-1.0181
X-0.2283Y-1.1181
X0.4015Y-1.3466
X0.4015Y-1.4466
X0.7362Y1.2567
X0.7362Y1.1567
X0.7362Y1.0567
X0.7362Y0.9567
X-0.7047Y-0.689
X0.9134Y1.2362
X-1.6063Y-0.3465
T6
X-0.4646Y-1.2075
X-0.4646Y-1.3075
X-0.4646Y-1.4765
X-0.4646Y-1.5765
X-0.4646Y-0.6694
X-0.4646Y-0.7694
X0.9983Y-1.0905
X0.9983Y-1.1905
X-0.4646Y-0.9384
X-0.4646Y-1.0384
X0.9983Y-0.8189
X0.9983Y-0.9189
X0.7976Y0.3307
X0.8976Y0.3307
T7
X0.8661Y1.5002
X1.7323Y0.0
X0.8661Y-1.5002
X-0.8661Y-1.5002
X-0.8661Y1.5002
X-1.7323Y0.0
T2
G00X-0.2128Y-1.49
M15
G01X-0.2128Y-1.429
M16
G05
G00X-0.2128Y-1.6122
M15
G01X-0.2128Y-1.561
M16
G05
G00X0.2124Y-1.49
M15
G01X0.2124Y-1.429
M16
G05
G00X0.2124Y-1.6122
M15
G01X0.2124Y-1.561
M16
G05
T0
M30
